<?xml version="1.0" encoding="UTF-8"?><svg id="uuid-20afb9ca-bd4e-476f-bd3d-27311c541ad3" xmlns="http://www.w3.org/2000/svg" viewBox="0 0 51.71 59.71"><g id="uuid-6afae489-1e56-4d31-8e76-7c0ae28b59a1"><g id="uuid-0fae5310-7d55-4f30-bbb4-f6913234f7f2"><g id="uuid-c705df12-ef2d-41b0-bd08-ea9fd8038ab8"><g id="uuid-c093919a-2171-4fd7-b4f5-5619ad3d375d"><path id="uuid-2cc6b543-231b-4f60-970a-dd20f0c24d59" d="m50.5,15.21v40c0,2.21-1.79,4-4,4H4.5c-2.21,0-4-1.79-4-4V5.21C.5,3,2.29,1.21,4.5,1.21h32v10c0,2.21,1.79,4,4,4h10Z" style="fill:#e1eef2; fill-rule:evenodd; stroke:#e1eef2; stroke-miterlimit:10;"/><path id="uuid-5a55b0d8-05cb-473c-ae90-4cf9ce58ffa3" d="m50.5,15.21h-10c-2.21,0-4-1.79-4-4V1.21l14,14Z" style="fill:#0092d4; fill-rule:evenodd; stroke:#209dcb; stroke-miterlimit:10;"/><path id="uuid-2429d853-ded1-49f2-b331-6f78b6608df3" d="m28.5,31.21v10c0,.55-.45,1-1,1h-6c-.55,0-1-.45-1-1v-10c0-.55.45-1,1-1h6c.55,0,1,.45,1,1Zm-4,8c.55,0,1-.45,1-1s-.45-1-1-1-1,.45-1,1,.45,1,1,1Z" style="fill:#ff8300; fill-rule:evenodd;"/></g><path id="uuid-accda33b-50f6-4c37-a569-1f6468db960c" d="m24.54,2.21h-.04v4h-2v4h2v4h-2v4h2v4h-2v4h2v4h-3c-.55,0-1,.45-1,1v10c0,.55.45,1,1,1h6c.55,0,1-.45,1-1v-10c0-.55-.45-1-1-1m9-24v5c0,2.21,1.79,4,4,4h10v40c0,2.21-1.79,4-4,4H4.5c-2.21,0-4-1.79-4-4V5.21C.5,3,2.29,1.21,4.5,1.21h32l10,10m-22,28c.55,0,1-.45,1-1s-.45-1-1-1-1,.45-1,1,.45,1,1,1Z" style="fill:none; stroke:#2a2a2a; stroke-linecap:round; stroke-linejoin:round;"/></g></g></g></svg>