<?xml version="1.0" encoding="UTF-8"?><svg id="uuid-3a8b2c60-534d-4f12-8f84-aa47a2831e3d" xmlns="http://www.w3.org/2000/svg" viewBox="0 0 51 59"><g id="uuid-205cc218-1498-4b99-9467-d9044eb10ff7"><g id="uuid-e3662ead-f513-422c-83dd-949f2dcd45a4"><g id="uuid-b0838546-5123-4fce-a5bf-e34f212fc1d0"><g id="uuid-0f033ff9-67d5-4a16-9988-e4e4a5679bbf"><path id="uuid-9648ac8f-4e09-478b-83db-9293c7c67059" d="m50.5,14.5v40c0,2.21-1.79,4-4,4H4.5c-2.21,0-4-1.79-4-4V4.5C.5,2.29,2.29.5,4.5.5h32v10c0,2.21,1.79,4,4,4h10Z" style="fill:#e1eef2; fill-rule:evenodd; stroke:#e1eef2; stroke-miterlimit:10;"/><path id="uuid-cb9f9fcb-4fa4-4968-8540-8fa8d27a566c" d="m50.5,14.5h-10c-2.21,0-4-1.79-4-4V.5l14,14Z" style="fill:#0092d4; fill-rule:evenodd;"/><path id="uuid-85f04812-e68f-4cea-b30b-a9553eacece5" d="m20.5,48.5h4v-16h-4v16Zm8,0h4v-12h-4v12Zm-16-8v8h4v-8h-4Zm24,8h4v-20h-4v20Z" style="fill:#ff8300; fill-rule:evenodd;"/></g><path id="uuid-c0d8943b-933b-4efa-8c96-f7b543bced0e" d="m40.5,48.5v-20h-4v20h-4v-12h-4v12h-4v-16h-4v16h-4v-8h-4v8h-2M36.5,5.5v5c0,2.21,1.79,4,4,4h10v40c0,2.21-1.79,4-4,4H4.5c-2.21,0-4-1.79-4-4V4.5C.5,2.29,2.29.5,4.5.5h32l10,10" style="fill:none; stroke:#2a2a2a; stroke-linecap:round; stroke-linejoin:round;"/></g></g></g></svg>