<?xml version="1.0" encoding="UTF-8"?><svg id="uuid-8df5fada-6a0e-4d57-a790-eb154c8e5c4c" xmlns="http://www.w3.org/2000/svg" viewBox="0 0 51.71 59.71"><g id="uuid-46075e33-d71d-4b30-9e7a-815f8900b371"><g id="uuid-5181a887-8c08-488e-9e91-ec22f7dfb228"><g id="uuid-e5990a6b-8cfc-4820-a60c-69cb874e3851"><g id="uuid-b7e630d4-b399-4ccb-abf9-e67fa8b7273a"><path id="uuid-23bfc034-8c32-4326-b3bf-2cae5b6d0280" d="m50.5,15.21v40c0,2.21-1.79,4-4,4H4.5c-2.21,0-4-1.79-4-4V5.21C.5,3,2.29,1.21,4.5,1.21h32v10c0,2.21,1.79,4,4,4h10Z" style="fill:#e1eef2; fill-rule:evenodd; stroke:#e1eef2; stroke-miterlimit:10;"/><path id="uuid-093c12ff-b1e5-4a6c-b32c-d7e2169513a0" d="m50.5,15.21h-10c-2.21,0-4-1.79-4-4V1.21l14,14Z" style="fill:#0092d4; fill-rule:evenodd; stroke:#209dcb; stroke-miterlimit:10;"/></g><path id="uuid-f84d36d2-d3f6-4fb7-bb8c-14b777b63506" d="m22.5,43.21l6-12m4,14l4-8-4-8m-14,0l-4,8,4,8M36.5,6.21v5c0,2.21,1.79,4,4,4h10v40c0,2.21-1.79,4-4,4H4.5c-2.21,0-4-1.79-4-4V5.21C.5,3,2.29,1.21,4.5,1.21h32l10,10" style="fill:none; stroke:#2a2a2a; stroke-linecap:round; stroke-linejoin:round;"/></g></g></g></svg>