<?xml version="1.0" encoding="UTF-8"?><svg id="uuid-218a9fd1-bc35-4d45-9e63-e58fea569747" xmlns="http://www.w3.org/2000/svg" viewBox="0 0 51.71 59.71"><g id="uuid-0a7ee735-c7b6-4378-b61e-c8a6ec70fe17"><g id="uuid-b8f4f464-eafc-43b2-b7a2-d4c382f9733b"><g id="uuid-98c1e0f1-a776-4236-a555-c30478b99b76"><g id="uuid-cb1b958f-49e5-4944-9f5f-2386c628de97"><path id="uuid-fbfbd6da-3f2d-43e2-b297-4856d33b4733" d="m50.5,15.21v40c0,2.21-1.79,4-4,4H4.5c-2.21,0-4-1.79-4-4V5.21C.5,3,2.29,1.21,4.5,1.21h32v10c0,2.21,1.79,4,4,4h10Z" style="fill:#e1eef2; fill-rule:evenodd; stroke:#e1eef2; stroke-miterlimit:10;"/><path id="uuid-59d5a404-6678-4338-99ee-4a51ba4490c1" d="m50.5,15.21h-10c-2.21,0-4-1.79-4-4V1.21l14,14Z" style="fill:#0092d4; fill-rule:evenodd; stroke:#209dcb; stroke-miterlimit:10;"/><path id="uuid-21477be2-8cef-42d9-a955-ebc18407d115" d="m30.5,42.21c.55,0,1-.45,1-1s-.45-1-1-1-1,.45-1,1,.45,1,1,1Zm-5,0c.55,0,1-.45,1-1s-.45-1-1-1-1,.45-1,1,.45,1,1,1Zm-5,0c.55,0,1-.45,1-1s-.45-1-1-1-1,.45-1,1,.45,1,1,1Z" style="fill:#ff8300; fill-rule:evenodd;"/></g><path id="uuid-90a29db1-317f-4877-a20b-15fd516e17e4" d="m32.5,45.21s2,0,2-2v-3s0-2,2-3c-2-1-2-5-2-5v-1c0-2-2-2-2-2m-14,0s-2,0-2,2v1s0,4-2,5c2,1,2,3,2,3v3c0,2,2,2,2,2M36.5,6.21v5c0,2.21,1.79,4,4,4h10v40c0,2.21-1.79,4-4,4H4.5c-2.21,0-4-1.79-4-4V5.21C.5,3,2.29,1.21,4.5,1.21h32l10,10m-26,31c.55,0,1-.45,1-1s-.45-1-1-1-1,.45-1,1,.45,1,1,1Zm5,0c.55,0,1-.45,1-1s-.45-1-1-1-1,.45-1,1,.45,1,1,1Zm5,0c.55,0,1-.45,1-1s-.45-1-1-1-1,.45-1,1,.45,1,1,1Z" style="fill:none; stroke:#2a2a2a; stroke-linecap:round; stroke-linejoin:round;"/></g></g></g></svg>