<?xml version="1.0" encoding="UTF-8"?><svg id="uuid-bddfd94f-f17f-4c68-a627-7f049c197a2b" xmlns="http://www.w3.org/2000/svg" viewBox="0 0 51 59"><g id="uuid-a21b1159-b596-4231-b42d-ab103b279d89"><g id="uuid-60557443-9622-48a4-baac-505720ec55b3"><g id="uuid-62756bbb-537d-49bc-8228-7ced7bfdb57e"><g id="uuid-f5b5490d-c92b-4312-b44a-e091ce01481a"><path id="uuid-609534b7-c790-48b1-8959-40e0995d5dcb" d="m50.5,14.5v40c0,2.21-1.79,4-4,4H4.5c-2.21,0-4-1.79-4-4V4.5C.5,2.29,2.29.5,4.5.5h32v10c0,2.21,1.79,4,4,4h10Z" style="fill:#e1eef2; fill-rule:evenodd; stroke:#e1eef2; stroke-miterlimit:10;"/><path id="uuid-a36ae2e3-b280-489c-8339-5999f3f4ae1d" d="m50.5,14.5h-10c-2.21,0-4-1.79-4-4V.5l14,14Z" style="fill:#0092d4; fill-rule:evenodd;"/><path id="uuid-81d694bf-881d-4953-9c20-c8992e1d1a5e" d="m28.5,37.5c0-1.66-1.34-3-3-3s-3,1.34-3,3,1.34,3,3,3,3-1.34,3-3m-3-13c7.18,0,13,5.82,13,13s-5.82,13-13,13-13-5.82-13-13,5.82-13,13-13" style="fill:#0092d4; fill-rule:evenodd;"/></g><path id="uuid-dae94548-372a-4739-8aec-82151099f27e" d="m18.75,30.75l2.2,2.2-2.2-2.2Zm11.25,11.25l2.22,2.22-2.22-2.22Zm-1.5-4.5c0-1.66-1.34-3-3-3s-3,1.34-3,3,1.34,3,3,3,3-1.34,3-3Zm10,0c0-7.18-5.82-13-13-13s-13,5.82-13,13,5.82,13,13,13,13-5.82,13-13Zm-2-32v5c0,2.21,1.79,4,4,4h10v40c0,2.21-1.79,4-4,4H4.5c-2.21,0-4-1.79-4-4V4.5C.5,2.29,2.29.5,4.5.5h32l10,10" style="fill:none; stroke:#2a2a2a; stroke-linecap:round; stroke-linejoin:round;"/></g></g></g></svg>