<?xml version="1.0" encoding="UTF-8"?><svg id="uuid-e5c1ec4d-3185-40fa-a5ae-f5c80a800bd6" xmlns="http://www.w3.org/2000/svg" viewBox="0 0 51.71 59.71"><g id="uuid-2c95e1ac-2157-4396-a8f2-a221324a0b8b"><g id="uuid-3f67da31-457f-41b6-baa0-1bd83f7f78d3"><g id="uuid-06ab85d3-b343-4274-aa52-1e742ea722f7"><g id="uuid-a050ae43-58c9-43da-863a-8e46c99792a9"><path id="uuid-03ba35c3-4c08-4226-a56a-fafb271c8288" d="m50.5,15.21v40c0,2.21-1.79,4-4,4H4.5c-2.21,0-4-1.79-4-4V5.21C.5,3,2.29,1.21,4.5,1.21h32v10c0,2.21,1.79,4,4,4h10Z" style="fill:#e1eef2; fill-rule:evenodd; stroke:#e1eef2; stroke-miterlimit:10;"/><path id="uuid-bcef85c9-7231-406e-986c-fea975f5ef1c" d="m50.5,15.21h-10c-2.21,0-4-1.79-4-4V1.21l14,14Z" style="fill:#0092d4; fill-rule:evenodd; stroke:#209dcb; stroke-miterlimit:10;"/><path id="uuid-97606dd6-f44b-41ec-8ce4-53bd602533c0" d="m40.5,23.21v14H10.5v-14h30Z" style="fill:#e1eef2; fill-rule:evenodd; stroke:#e1eef2; stroke-miterlimit:10;"/><path id="uuid-0eea82ff-735a-486b-b482-dd7b4137f0bf" d="m40.5,37.21h-24l7-7,3,3,5-5,9,9Z" style="fill:#0092d4; fill-rule:evenodd; stroke:#209dcb; stroke-miterlimit:10;"/><path id="uuid-e8d18400-608b-4ac5-8227-02eea1073b88" d="m15.5,27.21c.55,0,1,.45,1,1s-.45,1-1,1-1-.45-1-1,.45-1,1-1" style="fill:#ff8300; fill-rule:evenodd;"/></g><path id="uuid-5b07419f-95ae-4f68-b648-e55a00df02ba" d="m32.5,1.21H4.5C2.29,1.21.5,3,.5,5.21v50c0,2.21,1.79,4,4,4h42c2.21,0,4-1.79,4-4V15.21L36.5,1.21v10c0,2.28,1.75,4,4,4h4m-29,12c-.55,0-1,.45-1,1s.45,1,1,1,1-.45,1-1-.45-1-1-1Zm7,10h18v-14H10.5v14h6l7-7,3,3,5-5,5,5m-16,16h-10,10Zm18,0h-14,14Zm-8-6h-10,10Zm-14,0h-6,6Zm24,0h-6,6ZM10.5,17.21h10-10Z" style="fill:none; stroke:#2a2a2a; stroke-linecap:round; stroke-linejoin:round;"/></g></g></g></svg>