<?xml version="1.0" encoding="UTF-8"?><svg id="uuid-5f74a7b2-b785-48f2-acee-12c077d108ce" xmlns="http://www.w3.org/2000/svg" viewBox="0 0 51 59"><g id="uuid-0f11a079-20ad-4171-8ba8-5f265414024d"><g id="uuid-40571c0a-50bc-43be-b708-a015363cfb21"><g id="uuid-4c3778aa-ab89-4504-88c4-a5dfd5e42425"><g id="uuid-dca8a916-f509-46bf-b487-dd7bc5f615f1"><path id="uuid-7e335385-8a35-4ca1-93c5-95b50093737c" d="m50.5,14.5v40c0,2.21-1.79,4-4,4H4.5c-2.21,0-4-1.79-4-4V4.5C.5,2.29,2.29.5,4.5.5h32v10c0,2.21,1.79,4,4,4h10Z" style="fill:#e1eef2; fill-rule:evenodd; stroke:#e1eef2; stroke-miterlimit:10;"/><path id="uuid-e914aa02-da7f-445a-948c-bc9cd455b1ed" d="m50.5,14.5h-10c-2.21,0-4-1.79-4-4V.5l14,14Z" style="fill:#0092d4; fill-rule:evenodd;"/><path id="uuid-e3ec6e19-c2ad-41ed-9ce6-42e5f3c0e3c1" d="m19.1,25c.25.44.4.95.4,1.5s-.15,1.06-.4,1.5c-.52.9-1.49,1.5-2.6,1.5s-2.08-.6-2.6-1.5c-.25-.44-.4-.95-.4-1.5s.15-1.06.4-1.5c.52-.9,1.49-1.5,2.6-1.5s2.08.6,2.6,1.5" style="fill:#ff8300; fill-rule:evenodd;"/><path id="uuid-cdb10070-0bcf-4616-9c79-a9ebf0e94ce2" d="m40.5,40.5v8H8.5l11-11,5,5,9-9,7,7Z" style="fill:#0092d4; fill-rule:evenodd; stroke:#209dcb; stroke-miterlimit:10;"/></g><path id="uuid-fdc534ee-bc44-4047-8901-eb902965034d" d="m21.7,23.5l-2.6,1.5,2.6-1.5Zm0,6l-2.6-1.5,2.6,1.5Zm-5.2,3v-3,3Zm-5.2-3l2.6-1.5-2.6,1.5Zm0-6l2.6,1.5-2.6-1.5Zm5.2-3v3-3Zm3,6c0-1.66-1.34-3-3-3s-3,1.34-3,3,1.34,3,3,3,3-1.34,3-3Zm21,14l-7-7-9,9-5-5-11,11h32m-4-43v5c0,2.21,1.79,4,4,4h10v40c0,2.21-1.79,4-4,4H4.5c-2.21,0-4-1.79-4-4V4.5C.5,2.29,2.29.5,4.5.5h32l10,10" style="fill:none; stroke:#2a2a2a; stroke-linecap:round; stroke-linejoin:round;"/></g></g></g></svg>