<?xml version="1.0" encoding="UTF-8"?><svg id="uuid-761d879e-63a9-47c2-a193-aae978019ada" xmlns="http://www.w3.org/2000/svg" viewBox="0 0 51.71 59.71"><g id="uuid-6fd40e8c-51e1-4ce9-954b-e791255236a2"><g id="uuid-042948b6-ffba-4ac7-be42-ac3ec942cf6d"><g id="uuid-ddc1e967-008e-4faa-b27c-c6a283b5b4e4"><g id="uuid-0e9d4489-17e4-473f-8b1b-b06d332c5020"><path id="uuid-c86f3bca-7f49-4475-a472-8d7edceeed25" d="m50.5,15.21v40c0,2.21-1.79,4-4,4H4.5c-2.21,0-4-1.79-4-4V5.21C.5,3,2.29,1.21,4.5,1.21h32v10c0,2.21,1.79,4,4,4h10Z" style="fill:#e1eef2; fill-rule:evenodd; stroke:#e1eef2; stroke-miterlimit:10;"/><path id="uuid-4dbf1c6e-215b-419e-b8d2-4ed84c1c9f66" d="m50.5,15.21h-10c-2.21,0-4-1.79-4-4V1.21l14,14Z" style="fill:#0092d4; fill-rule:evenodd; stroke:#209dcb; stroke-miterlimit:10;"/><circle id="uuid-8243a96d-0328-4d37-a1dc-b876aa781acb" cx="25.5" cy="33.21" r="1" style="fill:#ff8300;"/></g><path id="uuid-f962362c-1f4f-40bb-a326-66d25ae3929b" d="m25.5,41.21c1-2,0-4,0-4m7,8s2,0,2-2v-3s0-2,2-3c-2-1-2-5-2-5v-1c0-2-2-2-2-2m-14,0s-2,0-2,2v1s0,4-2,5c2,1,2,3,2,3v3c0,2,2,2,2,2M36.5,6.21v5c0,2.21,1.79,4,4,4h10v40c0,2.21-1.79,4-4,4H4.5c-2.21,0-4-1.79-4-4V5.21C.5,3,2.29,1.21,4.5,1.21h32l10,10m-21,23c.55,0,1-.45,1-1s-.45-1-1-1-1,.45-1,1,.45,1,1,1Z" style="fill:none; stroke:#2a2a2a; stroke-linecap:round; stroke-linejoin:round;"/></g></g></g></svg>