<?xml version="1.0" encoding="UTF-8"?><svg id="uuid-ff3dc2f3-f17f-4206-a78f-ff41d0606989" xmlns="http://www.w3.org/2000/svg" viewBox="0 0 51 59"><g id="uuid-6be158a6-e397-4380-9558-024c20cc0413"><g id="uuid-20f05163-a0b7-401d-a703-802ddaabca69"><g id="uuid-463f30ce-d37a-4969-be7c-f401c0e99a28"><g id="uuid-7f465b9f-c50f-4a4a-afed-3dfabc1af814"><path id="uuid-b73ae262-8493-4690-9e70-8463e469754a" d="m50.5,14.5v40c0,2.21-1.79,4-4,4H4.5c-2.21,0-4-1.79-4-4V4.5C.5,2.29,2.29.5,4.5.5h32v10c0,2.21,1.79,4,4,4h10Z" style="fill:#e1eef2; fill-rule:evenodd; stroke:#e1eef2; stroke-miterlimit:10;"/><path id="uuid-1893e4c3-26c4-43c8-b78f-dde4c91b7cdc" d="m50.5,14.5h-10c-2.21,0-4-1.79-4-4V.5l14,14Z" style="fill:#0092d4; fill-rule:evenodd;"/><path id="uuid-1d2423a1-d070-44ad-95e3-69ee62cc44b6" d="m22.26,40.62c-2.43,3.86-4.76,6.86-4.76,6.86-2.52,2.52-7,0-4-3,1.94-1.94,5.25-3.14,8.76-3.86Zm5.24-14.14c.54,2.13-.51,5.32-2.1,8.57-1.87-3.87-2.9-7.66-2.9-8.57,0-2,4.19-3.22,5,0Zm-2.1,8.57c.79,1.63,1.73,3.27,2.8,4.71-1.91.17-3.95.44-5.94.86,1.09-1.75,2.21-3.67,3.14-5.57Zm11.1,4.43c2,0,3.72,5-1,5-2.84,0-5.31-2.02-7.3-4.72,4.29-.38,7.85-.28,8.3-.28Z" style="fill:#ff8300; fill-rule:evenodd;"/></g><path id="uuid-0e097138-95f6-4825-950e-c40d34f38f0f" d="m22.5,26.5c0,2,5,18,13,18,4.72,0,3-5,1-5-1,0-17.48-.52-23,5-3,3,1.48,5.52,4,3,0,0,11.55-14.87,10-21-.81-3.22-5-2-5,0Zm14-21v5c0,2.21,1.79,4,4,4h10v40c0,2.21-1.79,4-4,4H4.5c-2.21,0-4-1.79-4-4V4.5C.5,2.29,2.29.5,4.5.5h32l10,10" style="fill:none; stroke:#2a2a2a; stroke-linecap:round; stroke-linejoin:round;"/></g></g></g></svg>