<?xml version="1.0" encoding="UTF-8"?><svg id="uuid-5ec917a7-f6e9-4d16-9a94-5129ccbfd87f" xmlns="http://www.w3.org/2000/svg" viewBox="0 0 51 59"><g id="uuid-ec738efd-62b9-4592-9d36-471e69fa7609"><g id="uuid-335ee322-71e8-4560-91a2-da06fe1cf5ee"><g id="uuid-a558ac9f-b9df-496e-bda4-d50242c6f81e"><g id="uuid-275371fe-b6f8-4d72-8046-add44183c95e"><path id="uuid-12b0e966-38e1-4243-95ed-829f585767a2" d="m50.5,14.5v40c0,2.21-1.79,4-4,4H4.5c-2.21,0-4-1.79-4-4V4.5C.5,2.29,2.29.5,4.5.5h32v10c0,2.21,1.79,4,4,4h10Z" style="fill:#e1eef2; fill-rule:evenodd; stroke:#e1eef2; stroke-miterlimit:10;"/><path id="uuid-deeb9ae5-449c-4afb-a3fa-b79f3c55f7a9" d="m50.5,14.5h-10c-2.21,0-4-1.79-4-4V.5l14,14Z" style="fill:#0092d4; fill-rule:evenodd;"/><path id="uuid-36ee6cbe-dd77-4cd9-8e2d-50439c0f8733" d="m16.32,46.63l9.18-9.13v13c-3.6,0-6.87-1.47-9.22-3.84l.04-.03Z" style="fill:#f9e0c6; fill-rule:evenodd;"/><path id="uuid-0a6a92cf-855e-453d-94bd-b822b9596b28" d="m25.5,37.5h13c0,7.18-5.82,13-13,13v-13Z" style="fill:#209dcb; fill-rule:evenodd;"/><path id="uuid-831eb05d-eb80-4ddb-a613-8a86178a6859" d="m38.5,37.5h-13l-9.18,9.13-.04.03c-2.33-2.35-3.78-5.58-3.78-9.16,0-7.18,5.82-13,13-13,5.78,0,10.69,3.78,12.37,9,0,0,.63,1.69.63,4" style="fill:#ff8300; fill-rule:evenodd;"/></g><path id="uuid-f9181531-a888-446a-a7cb-faa29ded7a14" d="m25.5,37.5v13m13-13h-13l-9.18,9.13m21.56-13.13c-1.69-5.22-6.59-9-12.37-9-7.18,0-13,5.82-13,13s5.82,13,13,13,13-5.82,13-13m-2-32v5c0,2.21,1.79,4,4,4h10v40c0,2.21-1.79,4-4,4H4.5c-2.21,0-4-1.79-4-4V4.5C.5,2.29,2.29.5,4.5.5h32l10,10" style="fill:none; stroke:#2a2a2a; stroke-linecap:round; stroke-linejoin:round;"/></g></g></g></svg>