<?xml version="1.0" encoding="UTF-8"?><svg id="uuid-45291a2b-0189-460a-ae4a-39dcbbe4229b" xmlns="http://www.w3.org/2000/svg" viewBox="0 0 51.71 60.41"><g id="uuid-40fa1088-e602-479e-9323-06dc8057cbfe"><g id="uuid-ce246727-9c9e-4053-bc3c-6ce3182d6fb0"><g id="uuid-6456ade4-b91b-40cd-a521-87d5f6c5ab83"><g id="uuid-01061457-f897-4316-93cb-c6f9312a89f7"><path id="uuid-204c91bc-ff81-46a7-9c01-316e4a47b613" d="m46.5,51.21l-6,6-3-3-3,3-4-4-4,4-2-2-4,4-4-4-4,4-6-6-6,6V5.21C.5,3,2.29,1.21,4.5,1.21h32v10c0,2.21,1.79,4,4,4h10v40l-4-4Z" style="fill:#e1eef2; fill-rule:evenodd; stroke:#e1eef2; stroke-miterlimit:10;"/><path id="uuid-dc982d42-afbc-40a0-bf80-a7008f53ad56" d="m50.5,15.21h-10c-2.21,0-4-1.79-4-4V1.21l14,14Z" style="fill:#0092d4; fill-rule:evenodd; stroke:#209dcb; stroke-miterlimit:10;"/></g><path id="uuid-d04b258a-629e-46df-853c-07c7f48fb291" d="m46.5,11.21L36.5,1.21H4.5C2.29,1.21.5,3,.5,5.21v54l6-6,6,6,4-4,4,4,4-4,2,2,4-4,4,4,3-3,3,3,6-6,4,4V15.21h-10c-2.21,0-4-1.79-4-4v-5m-14,31h16m-18,6h10m4,0h6m-30,0h6m14-12h6m-14,0h4m-16,0h8m-8,6h8m14-12h8m-12,0H10.5m10-8h-10" style="fill:none; stroke:#2a2a2a; stroke-linecap:round; stroke-linejoin:round;"/></g></g></g></svg>