<?xml version="1.0" encoding="UTF-8"?><svg id="uuid-2359ad4f-7db2-4834-9619-fb022438bff3" xmlns="http://www.w3.org/2000/svg" viewBox="0 0 51 59"><g id="uuid-19b5e6a4-a633-4be1-9fe7-d6cce242b93a"><g id="uuid-da951e56-f21f-470e-a173-3572c0c15dfd"><g id="uuid-65c3eeef-55a8-4e2f-9412-70ac85790465"><g id="uuid-5beca660-504a-49dd-ba56-6f1c39604d43"><path id="uuid-38d0acfa-b2b9-4726-9dcb-630eb13975a7" d="m50.5,14.5v40c0,2.21-1.79,4-4,4H4.5c-2.21,0-4-1.79-4-4V4.5C.5,2.29,2.29.5,4.5.5h32v10c0,2.21,1.79,4,4,4h10Z" style="fill:#e1eef2; fill-rule:evenodd; stroke:#e1eef2; stroke-miterlimit:10;"/><path id="uuid-db71e172-7096-4c50-bb94-35469c6deea2" d="m50.5,14.5h-10c-2.21,0-4-1.79-4-4V.5l14,14Z" style="fill:#0092d4; fill-rule:evenodd;"/><path id="uuid-2e01d245-1dd2-4085-a2c5-60a4c9baf9bd" d="m25.5,28.5l-3,3,.3.3,2.7,2.7,2.7-2.7.3-.3-3-3Z" style="fill:#209dcb; fill-rule:evenodd;"/><path id="uuid-4d572ff4-5a43-4838-afbe-0b4632dc6881" d="m12.5,44.5h-2v4h4v-4h-2Zm26,0h-2v4h4v-4h-2Z" style="fill:#ff8300; fill-rule:evenodd;"/></g><path id="uuid-cacea920-42ad-4a30-86e9-fc0f3413c4d3" d="m28.5,31.5h10-10Zm-16,0h10-10Zm24,17h4v-4h-4v4Zm-26,0h4v-4h-4v4Zm28-4c0-6.22-4.46-11.43-10.3-12.7m-5.41,0c-5.85,1.27-10.3,6.48-10.3,12.7m13-10l3-3-3-3-3,3,3,3Zm14-4c-.55,0-1,.45-1,1s.45,1,1,1,1-.45,1-1-.45-1-1-1Zm-28,0c-.55,0-1,.45-1,1s.45,1,1,1,1-.45,1-1-.45-1-1-1ZM36.5,5.5v5c0,2.21,1.79,4,4,4h10v40c0,2.21-1.79,4-4,4H4.5c-2.21,0-4-1.79-4-4V4.5C.5,2.29,2.29.5,4.5.5h32l10,10" style="fill:none; stroke:#2a2a2a; stroke-linecap:round; stroke-linejoin:round;"/></g></g></g></svg>