<?xml version="1.0" encoding="UTF-8"?>
<svg id="b" data-name="Ebene 2" xmlns="http://www.w3.org/2000/svg" viewBox="0 0 79.89 68.69">
  <defs>
    <style>
      .d {
        fill: #FF8300;
      }
    </style>
  </defs>
  <g id="c" data-name="Ebene 1">
    <path class="d" d="m79.18,61.04L44.29,2.47c-1.43-2.4-4.54-3.18-6.94-1.75-.72.43-1.32,1.03-1.75,1.75L.71,61.04c-1.43,2.4-.64,5.51,1.76,6.94.78.46,1.67.71,2.58.71h69.78c2.8,0,5.06-2.27,5.06-5.07,0-.91-.25-1.8-.71-2.58Zm-38.57-2.32c-2.34.38-4.54-1.21-4.92-3.54-.38-2.34,1.21-4.54,3.54-4.92,2.34-.38,4.54,1.21,4.92,3.54.38,2.34-1.2,4.54-3.54,4.92Zm3.62-19.18c0,2.36-1.92,4.28-4.29,4.28s-4.28-1.92-4.28-4.28v-14.81c0-2.37,1.92-4.29,4.28-4.29s4.29,1.92,4.29,4.29v14.81Z"/>
  </g>
</svg>