<?xml version="1.0" encoding="UTF-8"?>
<svg id="b" data-name="Ebene 2" xmlns="http://www.w3.org/2000/svg" viewBox="0 0 573.71 121.62">
  <defs>
    <style>
      .q {
        fill: #6893a2;
      }

      .r {
        fill: #161615;
      }

      .s {
        fill: #528293;
      }
    </style>
  </defs>
  <g id="c" data-name="Ebene 1">
    <g>
      <g>
        <path id="d" data-name="Path" class="s" d="m43.63,59.98L8.12,102.75v.41c4.26-3.78,9.8-5.81,15.49-5.66,14.49,0,23.7,10.1,23.7,21.91h-8.12c0-3.91-1.57-7.67-4.35-10.42-2.78-2.75-6.55-4.28-10.46-4.23h-.76c-8.33-.35-15.39,6.08-15.82,14.41H0v-59.17h8.12v32.09l25.62-32.01,9.88-.08Z"/>
        <path id="e" data-name="Shape" class="r" d="m85.87,114.15c-3.96,4.34-9.59,6.79-15.46,6.74-12.78,0-21.15-8.56-21.15-20.34.05-5.47,2.27-10.69,6.18-14.51,3.91-3.82,9.18-5.93,14.64-5.86h.32c12.13,0,21.18,7.66,21.18,23.37v16.93l-5.71-6.34Zm-15.38,0c5.57.25,10.74-2.89,13.1-7.94s1.44-11.03-2.33-15.14c-3.77-4.11-9.65-5.55-14.89-3.63-5.24,1.91-8.81,6.79-9.05,12.37-.01.23-.01.45,0,.68-.24,7.18,5.34,13.22,12.51,13.54h.57"/>
        <path id="f" data-name="Path" class="r" d="m126.5,96.95c.22-3.49-1.43-6.83-4.34-8.77s-6.63-2.17-9.76-.62c-3.13,1.55-5.2,4.66-5.42,8.14-.03.41-.03.83,0,1.25v22.21h-8.12v-22.21c.08-4.57,1.98-8.91,5.29-12.07,3.31-3.15,7.74-4.84,12.31-4.7h.38c4.47-.17,8.83,1.45,12.11,4.5,3.28,3.05,5.21,7.28,5.36,11.75.01.18.01.36,0,.54l-7.8-.03Z"/>
        <path id="g" data-name="Path" class="r" d="m167.44,96.95c.22-3.49-1.43-6.83-4.34-8.77-2.91-1.94-6.63-2.17-9.76-.62-3.13,1.55-5.2,4.66-5.42,8.14-.03.41-.03.83,0,1.25v22.21h-7.99v-22.21c.08-4.53,1.96-8.84,5.22-11.99,3.26-3.14,7.64-4.86,12.17-4.78h.38c4.47-.17,8.83,1.45,12.11,4.5,3.28,3.05,5.21,7.28,5.36,11.75.01.18.01.36,0,.54l-7.72-.03Z"/>
        <path id="h" data-name="Shape" class="r" d="m185.59,69.6c1.76-.01,3.35,1.04,4.02,2.66.68,1.62.31,3.49-.93,4.73-1.24,1.24-3.11,1.61-4.73.93s-2.67-2.27-2.66-4.02c.01-2.37,1.93-4.29,4.31-4.31m-3.98,12.21h8.12v37.34h-8.12v-37.34Z"/>
        <path id="i" data-name="Shape" class="r" d="m238.04,103.8c-1.69,10.49-11.17,17.93-21.76,17.08-10.6-.85-18.76-9.7-18.76-20.33s8.17-19.48,18.76-20.33,20.07,6.58,21.76,17.08h-7.85v6.5h7.85Zm-8.12-6.5c-1.26-6.1-6.63-10.48-12.86-10.48s-11.6,4.38-12.86,10.48h25.73Zm-25.73,6.5c1.1,6.16,6.53,10.59,12.78,10.43,6.38.27,11.99-4.16,13.22-10.43h-26Z"/>
        <path id="j" data-name="Path" class="r" d="m271.24,96.95c.66-3.7-.86-7.44-3.9-9.64-3.04-2.2-7.08-2.46-10.38-.67-3.3,1.79-5.29,5.31-5.11,9.06-.03.41-.03.83,0,1.25v22.21h-8.12v-22.21c.08-4.53,1.96-8.84,5.22-11.99,3.26-3.14,7.64-4.86,12.17-4.78h.35c4.48-.17,8.83,1.45,12.12,4.5,3.28,3.05,5.22,7.28,5.38,11.75v.54l-7.72-.03Z"/>
        <path id="k" data-name="Shape" class="r" d="m324.97,103.8c-1.69,10.49-11.17,17.93-21.76,17.08-10.6-.85-18.76-9.7-18.76-20.33s8.17-19.48,18.76-20.33c10.6-.85,20.07,6.58,21.76,17.08h-8.12v6.5h8.12Zm-8.12-6.5c-1.26-6.1-6.63-10.48-12.86-10.48s-11.6,4.38-12.86,10.48h25.73Zm-25.73,6.5c1.11,6.15,6.53,10.58,12.78,10.43,6.27.13,11.74-4.27,12.94-10.43h-25.73Z"/>
        <path id="l" data-name="Path" class="s" d="m376.02,59.98l-35.67,42.76v.41c4.3-3.82,9.9-5.84,15.65-5.66,14.49,0,23.67,10.1,23.67,21.91h-8.12c-.07-8.08-6.68-14.58-14.76-14.52h-.81c-8.28-.35-15.31,6-15.79,14.27h-7.8v-59.17h7.96v32.09l25.65-32.01,10.02-.08Z"/>
        <path id="m" data-name="Shape" class="r" d="m391.73,69.6c1.76-.01,3.35,1.04,4.02,2.66s.31,3.49-.93,4.73c-1.24,1.24-3.11,1.61-4.73.93-1.62-.68-2.67-2.27-2.66-4.02,0-2.38,1.93-4.31,4.31-4.31m-3.98,12.21h7.96v37.34h-7.96v-37.34Z"/>
        <path id="n" data-name="Path" class="r" d="m411.77,119.16h-8.12v-17.55c0-14,8.96-21.42,21.1-21.42s21.23,7.42,21.23,21.42v17.55h-7.96v-17.55c0-9.37-5.42-14.35-13.27-14.35s-13.11,4.98-13.11,14.35"/>
        <path id="o" data-name="Shape" class="r" d="m488.44,114.12c-6.18,7.45-16.69,9.63-25.32,5.26-8.63-4.38-13.08-14.15-10.72-23.53,2.36-9.39,10.9-15.89,20.58-15.66,4.92.1,9.62,2.04,13.19,5.42v-31.31h7.96v66.19l-5.69-6.36Zm-2.27-13.54c-.27-7.21-6.28-12.87-13.5-12.7s-12.95,6.12-12.87,13.34c.09,7.22,5.96,13.03,13.18,13.03,3.46.04,6.79-1.29,9.27-3.71,2.47-2.42,3.88-5.72,3.92-9.18.01-.26.01-.52,0-.79"/>
      </g>
      <path id="p" data-name="Shape" class="q" d="m573.71,31.96c0,17.65-14.31,31.96-31.96,31.96s-31.96-14.31-31.96-31.96,14.31-31.96,31.96-31.96h0c17.65,0,31.96,14.31,31.96,31.96Zm-31.96-15.49c-8.54,0-15.46,6.92-15.46,15.46s6.92,15.46,15.46,15.46,15.46-6.92,15.46-15.46h0c0-8.54-6.92-15.46-15.46-15.46h0Z"/>
    </g>
  </g>
</svg>