<?xml version="1.0" encoding="UTF-8"?><svg id="uuid-da2333c3-a65c-429f-be6d-97923d34fe7b" xmlns="http://www.w3.org/2000/svg" viewBox="0 0 51 59"><g id="uuid-8233d7cd-7399-4b8d-ab95-04a2ee2bb36f"><g id="uuid-97e6e0fd-1453-41f3-b88f-eda814ed5627"><g id="uuid-69930a9d-fcff-4fb1-8d80-bdb483f280a2"><g id="uuid-58300b3f-0fdb-4b39-9485-adab0a86964b"><path id="uuid-befaab99-179d-43fc-bade-e4942c8f3cfd" d="m50.5,14.5v40c0,2.21-1.79,4-4,4H4.5c-2.21,0-4-1.79-4-4V4.5C.5,2.29,2.29.5,4.5.5h32v10c0,2.21,1.79,4,4,4h10Z" style="fill:#e1eef2; fill-rule:evenodd; stroke:#e1eef2; stroke-miterlimit:10;"/><path id="uuid-48543f05-0335-4f18-93f9-8b5bca05610e" d="m50.5,14.5h-10c-2.21,0-4-1.79-4-4V.5l14,14Z" style="fill:#0092d4; fill-rule:evenodd;"/><path id="uuid-3656e9dd-6f80-4743-b649-f711f8d10727" d="m28.02,36.84c.31.78.48,1.64.48,2.54,0,3.87-3.13,7-7,7h-7v-7c0-3.87,3.13-7,7-7,.9,0,1.76.17,2.54.48,1.82.7,3.28,2.16,3.98,3.98" style="fill:#0092d4; fill-rule:evenodd;"/><path id="uuid-7a27b698-0b0b-4b7b-b712-ac8f55fed534" d="m28.02,36.84c-.7-1.82-2.16-3.28-3.98-3.98l.02-.04,7.44-7.44s2.02-1.98,4,0,0,4,0,4l-7.44,7.44-.04.02Z" style="fill:#e1eef2; fill-rule:evenodd; stroke:#e1eef2; stroke-miterlimit:10;"/></g><path id="uuid-9f5a68f5-32eb-4739-9fd0-31218136334c" d="m24.5,39.5c0-1.66-1.34-3-3-3m9.48-2.48l4.52-4.52s2-2,0-4c-1.98-1.98-4,0-4,0l-4.52,4.52m1.52,9.48c0-3.87-3.13-7-7-7s-7,3.13-7,7v7h7c3.87,0,7-3.13,7-7ZM36.5,5.5v5c0,2.21,1.79,4,4,4h10v40c0,2.21-1.79,4-4,4H4.5c-2.21,0-4-1.79-4-4V4.5C.5,2.29,2.29.5,4.5.5h32l10,10" style="fill:none; stroke:#2a2a2a; stroke-linecap:round; stroke-linejoin:round;"/></g></g></g></svg>