<?xml version="1.0" encoding="UTF-8"?><svg id="uuid-6b9ca657-82fb-4cba-9e69-82f7ee447291" xmlns="http://www.w3.org/2000/svg" viewBox="0 0 51 59"><g id="uuid-0b656421-646e-46fc-929b-b5ce26c54cbe"><g id="uuid-f4e67662-3d33-49a2-81c9-57daefcbfaef"><g id="uuid-ccd21d18-4345-4825-aff1-15dda093367c"><g id="uuid-867d0fbe-0e3c-4b83-b3cc-825f08b643e6"><path id="uuid-47665a0d-650f-4757-af78-6b4072320749" d="m50.5,14.5v40c0,2.21-1.79,4-4,4H4.5c-2.21,0-4-1.79-4-4V4.5C.5,2.29,2.29.5,4.5.5h32v10c0,2.21,1.79,4,4,4h10Z" style="fill:#e1eef2; fill-rule:evenodd; stroke:#e1eef2; stroke-miterlimit:10;"/><path id="uuid-7f0a9b01-ae65-4b1e-acc5-6edf04d9143d" d="m50.5,14.5h-10c-2.21,0-4-1.79-4-4V.5l14,14Z" style="fill:#209dcb; fill-rule:evenodd;"/><path id="uuid-f8f58341-5021-4ed1-b507-c02b099ec1b0" d="m25.5,22.5c7.18,0,13,5.82,13,13s-5.82,13-13,13-13-5.82-13-13,5.82-13,13-13Z" style="fill:#209dcb; fill-rule:evenodd;"/><path id="uuid-45127af6-9937-439f-80bc-525d1b2822c8" d="m29.5,35.5l-7,4v-8l7,4Z" style="fill:#e1eef2; fill-rule:evenodd; stroke:#e1eef2; stroke-miterlimit:10;"/></g><path id="uuid-76590792-5ea7-4533-b66d-833131ef1ce0" d="m22.5,31.5v8l7-4-7-4Zm16,4c0-7.18-5.82-13-13-13s-13,5.82-13,13,5.82,13,13,13,13-5.82,13-13Zm-2-30v5c0,2.21,1.79,4,4,4h10v40c0,2.21-1.79,4-4,4H4.5c-2.21,0-4-1.79-4-4V4.5C.5,2.29,2.29.5,4.5.5h32l10,10" style="fill:none; stroke:#2a2a2a; stroke-linecap:round; stroke-linejoin:round;"/></g></g></g></svg>