<?xml version="1.0" encoding="UTF-8"?><svg id="uuid-f47d1ffc-7f35-424f-b411-6737ea6ec23a" xmlns="http://www.w3.org/2000/svg" viewBox="0 0 51 59"><g id="uuid-06c029e8-2ebc-4338-ac81-82cb822bcddd"><g id="uuid-7ac36999-382a-4b35-915d-707b6186eb1b"><g id="uuid-8e272887-e5bc-4dab-b6a2-144b431ad906"><g id="uuid-3b0b15d7-bb2c-48f0-bb0d-77bfd6ea7501"><path id="uuid-1a4b7309-f426-4763-9ea6-6fe3c1afe738" d="m50.5,14.5v40c0,2.21-1.79,4-4,4H4.5c-2.21,0-4-1.79-4-4V4.5C.5,2.29,2.29.5,4.5.5h32v10c0,2.21,1.79,4,4,4h10Z" style="fill:#e1eef2; fill-rule:evenodd; stroke:#e1eef2; stroke-miterlimit:10;"/><path id="uuid-2058ab4d-5cd6-4da7-aee4-52708d832235" d="m14.5,24.5h22v24H14.5v-24Z" style="fill:#aab1ba; fill-rule:evenodd;"/><path id="uuid-307f3970-0fc8-4b0d-995f-b267aeb0d135" d="m50.5,14.5h-10c-2.21,0-4-1.79-4-4V.5l14,14Z" style="fill:#0092d4; fill-rule:evenodd;"/></g><path id="uuid-0a031b5d-4b24-4321-aa4a-fc824f234fd0" d="m14.5,36.5h22m-22,6h6m10,0h6m-6-12h6m-22,0h6m10-6v24h6v-24H14.5v24h12m-6-24v24M36.5,5.5v5c0,2.21,1.79,4,4,4h10v40c0,2.21-1.79,4-4,4H4.5c-2.21,0-4-1.79-4-4V4.5C.5,2.29,2.29.5,4.5.5h32l10,10" style="fill:none; stroke:#2a2a2a; stroke-linecap:round; stroke-linejoin:round;"/></g></g></g></svg>