<?xml version="1.0" encoding="UTF-8"?><svg id="uuid-27007334-6098-4c8b-8d07-dbabc31c190b" xmlns="http://www.w3.org/2000/svg" viewBox="0 0 51 59"><g id="uuid-a501e1be-23a8-4af8-bfc2-0f28fe5e633d"><g id="uuid-1b01b142-ba84-46f2-9f3f-cf76d4405d05"><g id="uuid-8ba25ba7-f3f2-4555-a1f8-923f08e70871"><g id="uuid-56166bef-bc25-48ae-804b-9b10baad9b6c"><path id="uuid-f8ae1f11-0ab7-4dec-8ed6-26039d96b819" d="m50.5,14.5v40c0,2.21-1.79,4-4,4H4.5c-2.21,0-4-1.79-4-4V4.5C.5,2.29,2.29.5,4.5.5h32v10c0,2.21,1.79,4,4,4h10Z" style="fill:#e1eef2; fill-rule:evenodd; stroke:#e1eef2; stroke-miterlimit:10;"/><path id="uuid-8030795a-eaf6-4896-8f21-e210637f11d8" d="m50.5,14.5h-10c-2.21,0-4-1.79-4-4V.5l14,14Z" style="fill:#0092d4; fill-rule:evenodd;"/><path id="uuid-3f807e36-0272-415d-8c8a-83432783558c" d="m16.5,48.5c2.21,0,4-1.79,4-4s-1.79-4-4-4-4,1.79-4,4,1.79,4,4,4Zm16-4c2.21,0,4-1.79,4-4s-1.79-4-4-4-4,1.79-4,4,1.79,4,4,4Z" style="fill:#ff8300; fill-rule:evenodd;"/></g><path id="uuid-d659ad1a-b7dc-4fda-819e-284495f099a3" d="m32.5,36.5c-2.21,0-4,1.79-4,4s1.79,4,4,4,4-1.79,4-4v-18l-16,4v18c0,2.21-1.79,4-4,4s-4-1.79-4-4,1.79-4,4-4M36.5,5.5v5c0,2.21,1.79,4,4,4h10v40c0,2.21-1.79,4-4,4H4.5c-2.21,0-4-1.79-4-4V4.5C.5,2.29,2.29.5,4.5.5h32l10,10" style="fill:none; stroke:#2a2a2a; stroke-linecap:round; stroke-linejoin:round;"/></g></g></g></svg>