<?xml version="1.0" encoding="UTF-8"?><svg id="uuid-9cdc1bf3-7aa2-472e-a40b-ddb9ab339e82" xmlns="http://www.w3.org/2000/svg" viewBox="0 0 51 59"><g id="uuid-bb5b7001-c8da-40ac-84eb-af5b200b273c"><g id="uuid-fef511a1-164c-4e7d-9668-205f6886d315"><g id="uuid-b6ef0127-06c0-4996-8092-e2dfbd82fd28"><g id="uuid-ecc83214-bfe2-41a7-ab09-d8a9821e8009"><path id="uuid-40405a0b-8f65-482c-9135-1046322eaad9" d="m50.5,14.5v40c0,2.21-1.79,4-4,4H4.5c-2.21,0-4-1.79-4-4V4.5C.5,2.29,2.29.5,4.5.5h32v10c0,2.21,1.79,4,4,4h10Z" style="fill:#e1eef2; fill-rule:evenodd; stroke:#e1eef2; stroke-miterlimit:10;"/><path id="uuid-930b373d-9a4c-4b09-8a80-ff1e546aac91" d="m50.5,14.5h-10c-2.21,0-4-1.79-4-4V.5l14,14Z" style="fill:#0092d4; fill-rule:evenodd;"/><path id="uuid-e79f2ac2-0650-439b-8ccc-866b0b19c276" d="m30.5,22.5l-4.96,4.96-.04.04,8,8,5-5-8-8Z" style="fill:#aab1ba; fill-rule:evenodd;"/><path id="uuid-31397e47-43a7-4743-ab58-0f5808f3ddfc" d="m21.09,39.91c.36.37.86.59,1.41.59,1.1,0,2-.9,2-2s-.9-2-2-2-2,.9-2,2c0,.55.22,1.05.59,1.41m-8.59,8.59s4-11,4-20c5,1,9-1,9-1l8,8s-2,4-1,9c-9,0-20,4-20,4" style="fill:#209dcb; fill-rule:evenodd;"/></g><path id="uuid-f7df2bd8-d8de-4e40-bf13-32a05f4d4195" d="m30.5,32.5l-5-5s-4,2-9,1c0,9-4,20-4,20,0,0,11-4,20-4-1-5,1-9,1-9l5-5-8-8-2.46,2.46m8.46-19.46v5c0,2.21,1.79,4,4,4h10v40c0,2.21-1.79,4-4,4H4.5c-2.21,0-4-1.79-4-4V4.5C.5,2.29,2.29.5,4.5.5h32l10,10m-25.41,29.41l-8.59,8.59,8.59-8.59Zm1.41.59c-1.1,0-2-.9-2-2s.9-2,2-2,2,.9,2,2-.9,2-2,2Z" style="fill:none; stroke:#2a2a2a; stroke-linecap:round; stroke-linejoin:round;"/></g></g></g></svg>