<?xml version="1.0" encoding="UTF-8"?><svg id="uuid-d648c0a6-f4a8-4006-a699-088ee75ccdcd" xmlns="http://www.w3.org/2000/svg" viewBox="0 0 51 59"><g id="uuid-1bc55ed0-dcbb-485a-af09-a6a1db22ab5b"><g id="uuid-d61d2287-3081-4e4c-9210-250a6ae54a37"><g id="uuid-2d1a60ce-5e6f-4ed4-bc76-4fc96250947e"><g id="uuid-329bd55d-0952-4bf2-a439-1fa9cd2ce1c8"><path id="uuid-8a7cb4dc-aa9f-40ae-acb7-88cd37a8b995" d="m50.5,14.5v40c0,2.21-1.79,4-4,4H4.5c-2.21,0-4-1.79-4-4V4.5C.5,2.29,2.29.5,4.5.5h32v10c0,2.21,1.79,4,4,4h10Z" style="fill:#e1eef2; fill-rule:evenodd; stroke:#e1eef2; stroke-miterlimit:10;"/><path id="uuid-b17afdd6-c1fb-405a-a800-f4b9c4753b62" d="m50.5,14.5h-10c-2.21,0-4-1.79-4-4V.5l14,14Z" style="fill:#0092d4; fill-rule:evenodd;"/><path id="uuid-c3d280b3-b5f8-41d1-8f78-add17a3697c8" d="m14.5,26.5v16h22v-16H14.5Z" style="fill:#209dcb; fill-rule:evenodd;"/></g><path id="uuid-8ef14596-98e3-4556-a012-a1dcb41b4bf6" d="m20.5,36.5h10-10Zm0-4h8-8Zm10,16l-3-6,3,6Zm-10,0l3-6-3,6Zm5-24v2-2Zm-11,18h22v-16H14.5v16ZM36.5,5.5v5c0,2.21,1.79,4,4,4h10v40c0,2.21-1.79,4-4,4H4.5c-2.21,0-4-1.79-4-4V4.5C.5,2.29,2.29.5,4.5.5h32l10,10" style="fill:none; stroke:#2a2a2a; stroke-linecap:round; stroke-linejoin:round;"/></g></g></g></svg>