<?xml version="1.0" encoding="UTF-8"?><svg id="uuid-f6772ecf-1997-4af2-8da4-02079ec845a7" xmlns="http://www.w3.org/2000/svg" viewBox="0 0 51 59"><g id="uuid-a9550d24-d387-47c7-8a5e-b9e246c9bfac"><g id="uuid-09e1e635-c73a-423e-b12b-12802c2a8ebe"><g id="uuid-466614a4-2fca-4ad3-9ee8-e20b54723a0d"><g id="uuid-91d504f7-4ca5-4a04-a4ed-1682f30e61a3"><path id="uuid-9d740fd7-5168-4b27-8cbc-01151dbcc2a8" d="m50.5,14.5v40c0,2.21-1.79,4-4,4H4.5c-2.21,0-4-1.79-4-4V4.5C.5,2.29,2.29.5,4.5.5h32v10c0,2.21,1.79,4,4,4h10Z" style="fill:#e1eef2; fill-rule:evenodd; stroke:#e1eef2; stroke-miterlimit:10;"/><path id="uuid-0f8a3a4c-66fb-456a-8499-bbb3155540b2" d="m50.5,14.5h-10c-2.21,0-4-1.79-4-4V.5l14,14Z" style="fill:#0092d4; fill-rule:evenodd;"/><path id="uuid-cbfe5a82-2f72-460d-870d-82745b34126d" d="m10.5,28.5h30v20H10.5v-20Z" style="fill:#0092d4; fill-rule:evenodd; stroke:#209dcb; stroke-miterlimit:10;"/></g><path id="uuid-7f5c1747-2750-4b9f-a48f-47978b57134b" d="m28.5,28.5v20m12-12H10.5m30,6H10.5m6-14v20m24,0v-20H10.5v20h26m0-43v5c0,2.21,1.79,4,4,4h10v40c0,2.21-1.79,4-4,4H4.5c-2.21,0-4-1.79-4-4V4.5C.5,2.29,2.29.5,4.5.5h32l10,10" style="fill:none; stroke:#2a2a2a; stroke-linecap:round; stroke-linejoin:round;"/></g></g></g></svg>