<?xml version="1.0" encoding="UTF-8"?><svg id="uuid-b6a58854-4f84-498c-9eed-7a72d2ead139" xmlns="http://www.w3.org/2000/svg" viewBox="0 0 51 59"><g id="uuid-f8a26827-9c21-44af-8efe-70a047b55d0a"><g id="uuid-60aeaf3a-0ad9-4616-a000-e479558bfa82"><g id="uuid-9ceb5695-75a4-4d1b-8010-532072b6d482"><g id="uuid-54a4a605-7683-45c9-9e1a-a69a0140e84d"><path id="uuid-1b4ffa22-7768-4ce1-a34f-b3dd589f8f48" d="m50.5,14.5v40c0,2.21-1.79,4-4,4H4.5c-2.21,0-4-1.79-4-4V4.5C.5,2.29,2.29.5,4.5.5h32v10c0,2.21,1.79,4,4,4h10Z" style="fill:#e1eef2; fill-rule:evenodd; stroke:#e1eef2; stroke-miterlimit:10;"/><path id="uuid-8d4c71cb-9026-4d18-9657-00e48ee06de9" d="m50.5,14.5h-10c-2.21,0-4-1.79-4-4V.5l14,14Z" style="fill:#0092d4; fill-rule:evenodd;"/></g><path id="uuid-b5890228-9f80-4531-a2c6-9826e57a776c" d="m26.5,48.5h10m-26,0h12m0-12h16m-18,6h10m4,0h6m-30,0h6m14-12h6m-14,0h4m-16,0h8m-8,6h8m14-12h8m-12,0H10.5m10-8h-10m26-11v5c0,2.21,1.79,4,4,4h10v40c0,2.21-1.79,4-4,4H4.5c-2.21,0-4-1.79-4-4V4.5C.5,2.29,2.29.5,4.5.5h32l10,10" style="fill:none; stroke:#2a2a2a; stroke-linecap:round; stroke-linejoin:round;"/></g></g></g></svg>