<?xml version="1.0" encoding="UTF-8"?>
<svg id="b" data-name="Ebene 2" xmlns="http://www.w3.org/2000/svg" viewBox="0 0 117.05 79.77">
  <defs>
    <style>
      .k {
        fill: #2a2a2a;
      }
    </style>
  </defs>
  <g id="c" data-name="Ebene 1">
    <g id="d" data-name="design">
      <g id="e" data-name="start-V1.1">
        <g id="f" data-name="Kundenstimme-Slider">
          <g id="g" data-name="Button/Square-Icon">
            <g id="h" data-name="icons/arrow-down/black">
              <g id="i" data-name="Path-2">
                <path class="k" d="m112.62,44.31H6.27c-2.45,0-4.43-1.98-4.43-4.43s1.98-4.43,4.43-4.43h106.36c2.45,0,4.43,1.98,4.43,4.43s-1.98,4.43-4.43,4.43Z"/>
              </g>
              <g id="j" data-name="Path-3">
                <path class="k" d="m41.72,79.77c-1.13,0-2.27-.43-3.13-1.3L0,39.88,38.58,1.3c1.73-1.73,4.54-1.73,6.27,0s1.73,4.54,0,6.27L12.53,39.88l32.32,32.32c1.73,1.73,1.73,4.54,0,6.27-.87.87-2,1.3-3.13,1.3Z"/>
              </g>
            </g>
          </g>
        </g>
      </g>
    </g>
  </g>
</svg>