<?xml version="1.0" encoding="UTF-8"?>
<svg id="b" data-name="Ebene 2" xmlns="http://www.w3.org/2000/svg" viewBox="0 0 101.67 69.28">
  <defs>
    <style>
      .k {
        fill: #209dcb;
      }
    </style>
  </defs>
  <g id="c" data-name="Ebene 1">
    <g id="d" data-name="design">
      <g id="e" data-name="start-V1.1">
        <g id="f" data-name="Kundenstimme-Slider">
          <g id="g" data-name="Button/Square-Icon">
            <g id="h" data-name="icons/arrow-down/black">
              <g id="i" data-name="Path-2">
                <path class="k" d="m3.85,30.79h92.38c2.13,0,3.85,1.72,3.85,3.85s-1.72,3.85-3.85,3.85H3.85c-2.13,0-3.85-1.72-3.85-3.85s1.72-3.85,3.85-3.85Z"/>
              </g>
              <g id="j" data-name="Path-3">
                <path class="k" d="m65.43,0c.98,0,1.97.38,2.72,1.13l33.51,33.51-33.51,33.51c-1.5,1.5-3.94,1.5-5.44,0s-1.5-3.94,0-5.44l28.07-28.07L62.71,6.57c-1.5-1.5-1.5-3.94,0-5.44.75-.75,1.74-1.13,2.72-1.13Z"/>
              </g>
            </g>
          </g>
        </g>
      </g>
    </g>
  </g>
</svg>