<?xml version="1.0" encoding="UTF-8"?><svg id="uuid-4e8e8da4-3265-4b11-a0b4-36544603e045" xmlns="http://www.w3.org/2000/svg" viewBox="0 0 137.53 107.57"><g id="uuid-8ec99c38-c77c-40d6-90b4-14a5cc7dacee"><path d="m125.25,17.72h-17.31c-2.76,0-5.25-1.53-6.49-3.99l-3.55-7c-2.1-4.15-6.3-6.73-10.95-6.73h-36.52c-4.71,0-8.93,2.62-11.01,6.84l-3.37,6.82c-1.06,2.14-3.05,3.58-5.35,3.95v-3.17c0-2.37-1.93-4.29-4.29-4.29h-10.98c-2.37,0-4.29,1.93-4.29,4.29v3.33c-6.23.58-11.13,5.84-11.13,12.22v65.29c0,6.77,5.51,12.28,12.28,12.28h112.97c6.77,0,12.28-5.51,12.28-12.28V30c0-6.77-5.51-12.28-12.28-12.28Zm-109.12-2.57h9.57v2.57h-9.57v-2.57Zm116.4,80.14c0,4.01-3.27,7.28-7.28,7.28H12.28c-4.01,0-7.28-3.27-7.28-7.28V30c0-4.01,3.27-7.28,7.28-7.28h17.24c4.71,0,8.93-2.62,11.01-6.84l3.37-6.82c1.24-2.5,3.74-4.06,6.53-4.06h36.52c2.76,0,5.25,1.53,6.49,3.99l3.55,7c2.1,4.15,6.3,6.73,10.95,6.73h17.31c4.01,0,7.28,3.27,7.28,7.28v65.29Z" style="fill:#fff;"/><path d="m68.77,26.74c-19,0-34.46,15.46-34.46,34.46s15.46,34.46,34.46,34.46,34.46-15.46,34.46-34.46-15.46-34.46-34.46-34.46Zm0,63.93c-16.25,0-29.46-13.22-29.46-29.46s13.22-29.46,29.46-29.46,29.46,13.22,29.46,29.46-13.22,29.46-29.46,29.46Z" style="fill:#fff;"/><path d="m16.39,26.74c-3.87,0-7.03,3.15-7.03,7.03s3.15,7.03,7.03,7.03,7.03-3.15,7.03-7.03-3.15-7.03-7.03-7.03Zm0,9.05c-1.12,0-2.03-.91-2.03-2.03s.91-2.03,2.03-2.03,2.03.91,2.03,2.03-.91,2.03-2.03,2.03Z" style="fill:#fff;"/><path d="m58.86,15.15h19.82c1.38,0,2.5-1.12,2.5-2.5s-1.12-2.5-2.5-2.5h-19.82c-1.38,0-2.5,1.12-2.5,2.5s1.12,2.5,2.5,2.5Z" style="fill:#fff;"/><path d="m123.64,28.73h-3.15c-1.38,0-2.5,1.12-2.5,2.5s1.12,2.5,2.5,2.5h3.15c1.38,0,2.5-1.12,2.5-2.5s-1.12-2.5-2.5-2.5Z" style="fill:#fff;"/><path d="m68.77,36.11c-13.84,0-25.1,11.26-25.1,25.1s11.26,25.1,25.1,25.1,25.1-11.26,25.1-25.1-11.26-25.1-25.1-25.1Zm0,45.2c-11.08,0-20.1-9.02-20.1-20.1s9.02-20.1,20.1-20.1,20.1,9.02,20.1,20.1-9.02,20.1-20.1,20.1Z" style="fill:#fff;"/></g></svg>