<?xml version="1.0" encoding="UTF-8"?><svg id="uuid-e02ff8d5-9e45-4d69-a842-05773e5f7806" xmlns="http://www.w3.org/2000/svg" viewBox="0 0 20.18 20.16"><g id="uuid-7275df3d-384c-4f3a-939a-f2aff6866004"><path d="m19.08,8.97l-7.27-1.47V2.87c0-.69-.5-1.28-1.18-1.39L1.63.02c-.41-.07-.82.05-1.14.32-.31.27-.49.66-.49,1.07v17.46c0,.72.58,1.3,1.3,1.3h17.51c.76,0,1.37-.62,1.37-1.37v-8.47c0-.65-.46-1.22-1.1-1.35Zm-14.88,10.19v-3.89c0-.11.09-.2.2-.2h2.76c.11,0,.2.09.2.2v3.89h-3.17Zm6.61,0h-2.44v-3.89c0-.66-.54-1.2-1.2-1.2h-2.76c-.66,0-1.2.54-1.2,1.2v3.89h-1.9c-.17,0-.3-.13-.3-.3V1.41c0-.16.09-.26.14-.31.05-.04.14-.1.26-.1.02,0,.04,0,.07,0l9,1.46c.2.03.34.2.34.4v16.29Zm8.37-.37c0,.21-.17.37-.37.37h-7v-10.63l7.07,1.43c.17.03.3.19.3.36v8.47Z" style="fill:#2a2a2a;"/><path d="m4.53,4.11h-1.51c-.28,0-.5.22-.5.5s.22.5.5.5h1.51c.28,0,.5-.22.5-.5s-.22-.5-.5-.5Z" style="fill:#2a2a2a;"/><path d="m8.68,4.11h-1.51c-.28,0-.5.22-.5.5s.22.5.5.5h1.51c.28,0,.5-.22.5-.5s-.22-.5-.5-.5Z" style="fill:#2a2a2a;"/><path d="m4.53,6.68h-1.51c-.28,0-.5.22-.5.5s.22.5.5.5h1.51c.28,0,.5-.22.5-.5s-.22-.5-.5-.5Z" style="fill:#2a2a2a;"/><path d="m8.68,6.68h-1.51c-.28,0-.5.22-.5.5s.22.5.5.5h1.51c.28,0,.5-.22.5-.5s-.22-.5-.5-.5Z" style="fill:#2a2a2a;"/><path d="m4.53,9.24h-1.51c-.28,0-.5.22-.5.5s.22.5.5.5h1.51c.28,0,.5-.22.5-.5s-.22-.5-.5-.5Z" style="fill:#2a2a2a;"/><path d="m8.68,9.24h-1.51c-.28,0-.5.22-.5.5s.22.5.5.5h1.51c.28,0,.5-.22.5-.5s-.22-.5-.5-.5Z" style="fill:#2a2a2a;"/><path d="m4.53,11.81h-1.51c-.28,0-.5.22-.5.5s.22.5.5.5h1.51c.28,0,.5-.22.5-.5s-.22-.5-.5-.5Z" style="fill:#2a2a2a;"/><path d="m8.68,11.81h-1.51c-.28,0-.5.22-.5.5s.22.5.5.5h1.51c.28,0,.5-.22.5-.5s-.22-.5-.5-.5Z" style="fill:#2a2a2a;"/><path d="m16.26,11.67h-1.51c-.28,0-.5.22-.5.5s.22.5.5.5h1.51c.28,0,.5-.22.5-.5s-.22-.5-.5-.5Z" style="fill:#2a2a2a;"/><path d="m16.26,14.23h-1.51c-.28,0-.5.22-.5.5s.22.5.5.5h1.51c.28,0,.5-.22.5-.5s-.22-.5-.5-.5Z" style="fill:#2a2a2a;"/><path d="m16.26,16.8h-1.51c-.28,0-.5.22-.5.5s.22.5.5.5h1.51c.28,0,.5-.22.5-.5s-.22-.5-.5-.5Z" style="fill:#2a2a2a;"/></g></svg>