<svg fill="none" height="512" viewBox="0 0 24 24" width="512" xmlns="http://www.w3.org/2000/svg">
  <g fill="#CB3420">
    <path
      d="m5.12817 8.15385v6.97435c.10257 1.3333.20513 3.0769.3077 4.3077.10256 1.4359 1.33333 2.5641 2.76923 2.5641h7.5897c1.4359 0 2.6667-1.1282 2.7693-2.5641.1025-1.2308.2051-2.9744.3077-4.3077.1025-1.5385 0-4.718 0-6.97435z" />
    <path
      d="m19.1795 5.07692h-2.5641l-.8205-1.53846c-.5128-.92307-1.4359-1.53846-2.4616-1.53846h-2.4615c-1.02565 0-2.05129.61539-2.46154 1.53846l-1.02564 1.53846h-2.56411c-.41025 0-.82051.41026-.82051.82052 0 .41025.41026.82051.82051.82051h14.35899c.4102 0 .8205-.30769.8205-.82051s-.4103-.82052-.8205-.82052zm-10.05129 0 .51282-.82051c.20512-.41026.61537-.71795 1.12817-.71795h2.4616c.5128 0 .923.20513 1.1282.71795l.5128.82051z" />
  </g>
</svg>