<?xml version="1.0" encoding="UTF-8"?><svg id="uuid-ffbb73a5-8ae0-4ca3-9ec5-00ede1855802" xmlns="http://www.w3.org/2000/svg" xmlns:xlink="http://www.w3.org/1999/xlink" viewBox="0 0 153.6 153.6"><defs><radialGradient id="uuid-e6395ef8-11be-4cb0-8d65-86641d014273" cx="43.47" cy="30.58" fx="43.47" fy="30.58" r="195.98" gradientUnits="userSpaceOnUse"><stop offset="0" stop-color="#ffe100"/><stop offset="1" stop-color="#f98900"/></radialGradient></defs><g id="uuid-44cab0c0-5644-48ae-ade8-83c78dd9663c"><circle cx="76.8" cy="76.8" r="76.8" style="fill:url(#uuid-e6395ef8-11be-4cb0-8d65-86641d014273);"/><path d="m51.26,120.07c-2.2-1.47-2.79-4.45-1.32-6.66,11.12-16.61,28.27-16.61,52.02-16.61,2.65,0,4.8,2.15,4.8,4.8s-2.15,4.8-4.8,4.8c-24.16,0-36.12.52-44.04,12.35-1.48,2.21-4.46,2.78-6.66,1.32h0Z" style="fill:#282522; opacity:.3;"/><circle cx="48.96" cy="62.91" r="12.32" style="fill:#282522; opacity:.3;"/><circle cx="104.66" cy="62.91" r="12.32" style="fill:#282522; opacity:.3;"/><path d="m153.6,76.8c0,42.43-34.39,76.8-76.8,76.8-24.14,0-45.7-11.14-59.78-28.58,13.18,10.66,29.95,17.02,48.22,17.02,42.41,0,76.8-34.37,76.8-76.8,0-18.26-6.36-35.04-17.02-48.22,17.42,14.09,28.58,35.64,28.58,59.78Z" style="opacity:.05;"/><path d="m51.26,122.47c-2.2-1.47-2.79-4.45-1.32-6.66,11.12-16.61,28.27-16.61,52.02-16.61,2.65,0,4.8,2.15,4.8,4.8s-2.15,4.8-4.8,4.8c-24.16,0-36.12.52-44.04,12.35-1.48,2.21-4.46,2.78-6.66,1.32h0Z" style="fill:#fff; opacity:.3;"/><circle cx="48.96" cy="65.31" r="12.32" style="fill:#fff; opacity:.3;"/><circle cx="104.66" cy="65.31" r="12.32" style="fill:#fff; opacity:.3;"/><path d="m51.26,121.27c-2.2-1.47-2.79-4.45-1.32-6.66,11.12-16.61,28.27-16.61,52.02-16.61,2.65,0,4.8,2.15,4.8,4.8s-2.15,4.8-4.8,4.8c-24.16,0-36.12.52-44.04,12.35-1.48,2.21-4.46,2.78-6.66,1.32h0Z" style="fill:#282522;"/><circle cx="48.96" cy="64.11" r="12.32" style="fill:#282522;"/><path d="m55.92,61.97c-.85.81-2.47.51-3.5-.63-1.07-1.14-1.25-2.76-.35-3.55.89-.82,2.46-.55,3.53.6,1.07,1.18,1.21,2.77.32,3.58Z" style="fill:#fff; opacity:.5;"/><circle cx="104.66" cy="64.11" r="12.32" style="fill:#282522;"/><path d="m111.62,61.97c-.85.81-2.47.51-3.5-.63-1.07-1.14-1.25-2.76-.35-3.55.89-.82,2.46-.55,3.53.6,1.07,1.18,1.21,2.77.32,3.58Z" style="fill:#fff; opacity:.5;"/></g></svg>