<?xml version="1.0" encoding="UTF-8"?><svg id="uuid-7f79fbb0-f007-4fde-b3dc-ddf939e779a7" xmlns="http://www.w3.org/2000/svg" xmlns:xlink="http://www.w3.org/1999/xlink" viewBox="0 0 153.6 153.6"><defs><radialGradient id="uuid-ff6c521a-98d1-4271-93af-7b10f9033017" cx="44.08" cy="32.07" fx="44.08" fy="32.07" r="191.56" gradientUnits="userSpaceOnUse"><stop offset="0" stop-color="#ffe100"/><stop offset="1" stop-color="#f98900"/></radialGradient></defs><g id="uuid-1706ab87-2cf0-40fa-a555-ff94396ce4f7"><circle cx="76.8" cy="76.8" r="76.8" style="fill:url(#uuid-ff6c521a-98d1-4271-93af-7b10f9033017);"/><path d="m153.6,76.8c0,42.43-34.39,76.8-76.8,76.8-24.14,0-45.7-11.14-59.78-28.58,13.18,10.66,29.95,17.02,48.22,17.02,42.41,0,76.8-34.37,76.8-76.8,0-18.26-6.36-35.04-17.02-48.22,17.42,14.09,28.58,35.64,28.58,59.78Z" style="opacity:.05;"/><circle cx="105.05" cy="58.22" r="12.05" style="fill:#282522; opacity:.3;"/><circle cx="48.55" cy="58.22" r="12.05" style="fill:#282522; opacity:.3;"/><path d="m45.34,105.62c-1.45-1.36-1.52-3.64-.15-5.09,1.36-1.44,3.64-1.52,5.09-.15,14.88,14,38.17,14,53.05,0,1.45-1.36,3.72-1.29,5.09.15,1.36,1.45,1.3,3.72-.15,5.09-17.64,16.61-45.28,16.61-62.92,0h0Z" style="fill:#282522; opacity:.3;"/><circle cx="105.05" cy="61.22" r="12.05" style="fill:#fff; opacity:.3;"/><circle cx="48.55" cy="61.22" r="12.05" style="fill:#fff; opacity:.3;"/><path d="m45.34,108.62c-1.45-1.36-1.52-3.64-.15-5.09,1.36-1.44,3.64-1.52,5.09-.15,14.88,14,38.17,14,53.05,0,1.45-1.36,3.72-1.29,5.09.15,1.36,1.45,1.3,3.72-.15,5.09-17.64,16.61-45.28,16.61-62.92,0h0Z" style="fill:#fff; opacity:.3;"/><circle cx="105.05" cy="59.72" r="12.05" style="fill:#282522;"/><ellipse cx="108.47" cy="54.39" rx="2.36" ry="3.65" transform="translate(14.78 131.5) rotate(-66.08)" style="fill:#fff; opacity:.5;"/><circle cx="48.55" cy="59.72" r="12.05" style="fill:#282522;"/><ellipse cx="51.96" cy="54.38" rx="2.36" ry="3.65" transform="translate(-18.82 79.84) rotate(-66.08)" style="fill:#fff; opacity:.5;"/><path d="m45.34,107.12c-1.45-1.36-1.52-3.64-.15-5.09,1.36-1.44,3.64-1.52,5.09-.15,14.88,14,38.17,14,53.05,0,1.45-1.36,3.72-1.29,5.09.15,1.36,1.45,1.3,3.72-.15,5.09-17.64,16.61-45.28,16.61-62.92,0h0Z" style="fill:#282522;"/></g></svg>