<?xml version="1.0" encoding="UTF-8"?><svg id="uuid-be32060f-12bc-42ff-976d-b41ac96a0a90" xmlns="http://www.w3.org/2000/svg" xmlns:xlink="http://www.w3.org/1999/xlink" viewBox="0 0 153.6 153.6"><defs><radialGradient id="uuid-423d41fb-eac8-4d00-b96f-8445b1657240" cx="40.75" cy="42.78" fx="40.75" fy="42.78" r="170.47" gradientUnits="userSpaceOnUse"><stop offset="0" stop-color="#ffe100"/><stop offset="1" stop-color="#f98900"/></radialGradient></defs><g id="uuid-8231a2a3-3c79-47e2-bf55-5e6f8d410533"><circle cx="76.8" cy="76.8" r="76.8" style="fill:url(#uuid-423d41fb-eac8-4d00-b96f-8445b1657240);"/><path d="m76.8,128.57c-20.63,0-38.76-13.22-45.11-32.89-.61-1.89.43-3.92,2.32-4.53,1.89-.61,3.91.42,4.53,2.31,0,0,0,0,0,.01,5.39,16.69,20.76,27.91,38.26,27.91s32.87-11.21,38.26-27.91c.61-1.89,2.63-2.93,4.52-2.32,0,0,0,0,.01,0,1.89.61,2.93,2.64,2.32,4.53-6.35,19.68-24.48,32.89-45.11,32.89Z" style="fill:#fff; opacity:.3;"/><path d="m63.69,62.31c.19.93-.94,1.56-1.62.9-3.77-3.65-9.35-5.95-15.58-5.95-6.25.03-11.84,2.34-15.61,5.99-.68.66-1.81.03-1.62-.9,1.61-8.04,8.71-14.09,17.23-14.09s15.59,6.03,17.2,14.06Zm60.65,0c.19.93-.94,1.56-1.62.9-3.77-3.65-9.35-5.95-15.58-5.95-6.25.03-11.84,2.34-15.61,5.99-.68.66-1.81.03-1.62-.9,1.61-8.04,8.71-14.09,17.23-14.09s15.59,6.03,17.2,14.06Z" style="fill:#fff; opacity:.3;"/><path d="m76.8,127.37c-20.63,0-38.76-13.22-45.11-32.89-.61-1.89.43-3.92,2.32-4.53,1.89-.61,3.91.42,4.53,2.31,0,0,0,0,0,.01,5.39,16.69,20.76,27.91,38.26,27.91s32.87-11.21,38.26-27.91c.61-1.89,2.63-2.93,4.52-2.32,0,0,0,0,.01,0,1.89.61,2.93,2.64,2.32,4.53-6.35,19.68-24.48,32.89-45.11,32.89Z" style="fill:#282522;"/><path d="m153.6,76.8c0,42.43-34.39,76.8-76.8,76.8-24.14,0-45.7-11.14-59.78-28.58,13.18,10.66,29.95,17.02,48.22,17.02,42.41,0,76.8-34.37,76.8-76.8,0-18.26-6.36-35.04-17.02-48.22,17.42,14.09,28.58,35.64,28.58,59.78Z" style="opacity:.05;"/><path d="m63.69,61.11c.19.93-.94,1.56-1.62.9-3.77-3.65-9.35-5.95-15.58-5.95-6.25.03-11.84,2.34-15.61,5.99-.68.66-1.81.03-1.62-.9,1.61-8.04,8.71-14.09,17.23-14.09s15.59,6.03,17.2,14.06Zm60.65,0c.19.93-.94,1.56-1.62.9-3.77-3.65-9.35-5.95-15.58-5.95-6.25.03-11.84,2.34-15.61,5.99-.68.66-1.81.03-1.62-.9,1.61-8.04,8.71-14.09,17.23-14.09s15.59,6.03,17.2,14.06Z" style="fill:#282522;"/><path d="m76.8,126.17c-20.63,0-38.76-13.22-45.11-32.89-.61-1.89.43-3.92,2.32-4.53,1.89-.61,3.91.42,4.53,2.31,0,0,0,0,0,.01,5.39,16.69,20.76,27.91,38.26,27.91s32.87-11.21,38.26-27.91c.61-1.89,2.63-2.93,4.52-2.32,0,0,0,0,.01,0,1.89.61,2.93,2.64,2.32,4.53-6.35,19.68-24.48,32.89-45.11,32.89Z" style="fill:#282522; opacity:.2;"/><path d="m63.69,59.91c.19.93-.94,1.56-1.62.9-3.77-3.65-9.35-5.95-15.58-5.95-6.25.03-11.84,2.34-15.61,5.99-.68.66-1.81.03-1.62-.9,1.61-8.04,8.71-14.09,17.23-14.09s15.59,6.03,17.2,14.06Zm60.65,0c.19.93-.94,1.56-1.62.9-3.77-3.65-9.35-5.95-15.58-5.95-6.25.03-11.84,2.34-15.61,5.99-.68.66-1.81.03-1.62-.9,1.61-8.04,8.71-14.09,17.23-14.09s15.59,6.03,17.2,14.06Z" style="fill:#282522; opacity:.2;"/></g></svg>