<?xml version="1.0" encoding="UTF-8"?><svg id="uuid-fe2bdac2-f116-4235-8915-5f52ca43560f" xmlns="http://www.w3.org/2000/svg" xmlns:xlink="http://www.w3.org/1999/xlink" viewBox="0 0 153.6 153.6"><defs><radialGradient id="uuid-60dad743-72b0-4858-a67c-87a5826d2eb8" cx="44.64" cy="36.16" fx="44.64" fy="36.16" r="192.59" gradientUnits="userSpaceOnUse"><stop offset="0" stop-color="#ffe100"/><stop offset="1" stop-color="#f98900"/></radialGradient></defs><g id="uuid-6d7343c5-010b-45dc-9979-fc61e48c6633"><circle cx="76.8" cy="76.8" r="76.8" style="fill:url(#uuid-60dad743-72b0-4858-a67c-87a5826d2eb8);"/><path d="m111.17,102.12c0,2.31-1.87,4.18-4.18,4.18h-60.39c-2.28,0-4.18-1.87-4.18-4.18s1.89-4.18,4.18-4.18h60.39c2.31,0,4.18,1.87,4.18,4.18h0Z" style="fill:#282522; opacity:.3;"/><path d="m153.6,76.8c0,42.43-34.39,76.8-76.8,76.8-24.14,0-45.7-11.14-59.78-28.58,13.18,10.66,29.95,17.02,48.22,17.02,42.41,0,76.8-34.37,76.8-76.8,0-18.26-6.36-35.04-17.02-48.22,17.42,14.09,28.58,35.64,28.58,59.78Z" style="opacity:.05;"/><path d="m111.17,104.52c0,2.31-1.87,4.18-4.18,4.18h-60.39c-2.28,0-4.18-1.87-4.18-4.18s1.89-4.18,4.18-4.18h60.39c2.31,0,4.18,1.87,4.18,4.18h0Z" style="fill:#fff; opacity:.3;"/><circle cx="52.35" cy="63.33" r="11.44" style="fill:#fff; opacity:.3;"/><circle cx="101.23" cy="63.33" r="11.44" style="fill:#fff; opacity:.3;"/><path d="m111.17,103.32c0,2.31-1.87,4.18-4.18,4.18h-60.39c-2.28,0-4.18-1.87-4.18-4.18s1.89-4.18,4.18-4.18h60.39c2.31,0,4.18,1.87,4.18,4.18h0Z" style="fill:#282522;"/><circle cx="52.35" cy="60.93" r="11.44" style="fill:#282522; opacity:.3;"/><circle cx="101.23" cy="60.93" r="11.44" style="fill:#282522; opacity:.3;"/><circle cx="52.35" cy="62.13" r="11.44" style="fill:#282522;"/><ellipse cx="57.2" cy="57.45" rx="1.94" ry="3" transform="translate(-22.99 45.51) rotate(-36.65)" style="fill:#fff; opacity:.5;"/><circle cx="101.23" cy="62.13" r="11.44" style="fill:#282522;"/><ellipse cx="106.08" cy="57.47" rx="1.94" ry="3" transform="translate(-13.33 74.7) rotate(-36.66)" style="fill:#fff; opacity:.5;"/></g></svg>