<?xml version="1.0" encoding="UTF-8"?><svg id="uuid-0814b9fb-5fc8-4866-bdb4-6d0ba4fc3475" xmlns="http://www.w3.org/2000/svg" viewBox="0 0 32.36 71.45"><g id="uuid-963772da-69c1-4d78-a1f8-82d68e91dba8"><path d="m30.5,61.62c-1.38.54-5.74,1.81-7.73.68-.56-.32-.92-.9-.97-1.54-.63-3.98,2.35-13.18,3.96-18.12.54-1.65.92-2.85,1.07-3.57,1.16-5.37.59-9.48-1.71-12.21-2.76-3.29-7.67-3.93-11.69-3.33-4.09.55-8.09,1.64-11.88,3.27-.36.17-.61.5-.69.89L.03,31.64c-.09.45.07.92.42,1.23.36.3.84.38,1.28.23,1.52-.56,6.27-1.82,7.96-.27.96.88.69,2.74.31,4.13-.4,1.45-.87,3.02-1.35,4.67-3.14,10.68-6.71,22.79-1.05,26.57,2.68,2.05,5.94,3.19,9.32,3.25,3.32,0,7.41-1.05,13.31-3.43.36-.14.64-.44.75-.8l1.21-4.05c.14-.47,0-.98-.36-1.31-.36-.33-.88-.42-1.33-.24Z" style="fill:#282522;"/><path d="m23.12,0c-5.1,0-9.23,4.14-9.23,9.24,0,5.1,4.14,9.23,9.24,9.23,5.09,0,9.22-4.13,9.23-9.23,0-5.1-4.14-9.24-9.24-9.24Z" style="fill:#282522;"/></g></svg>