<?xml version="1.0" encoding="UTF-8"?><svg id="uuid-8f85bec5-7e94-4fac-a13f-55c98d739c86" xmlns="http://www.w3.org/2000/svg" viewBox="0 0 18.43 19.92"><g id="uuid-540f952b-78a4-4055-ada6-a1920647c1a3"><path d="m9.23,18.92H3.77c-1.53,0-2.77-1.24-2.77-2.77V3.77c0-1.53,1.24-2.77,2.77-2.77h5.46c.28,0,.5-.22.5-.5s-.22-.5-.5-.5H3.77C1.69,0,0,1.69,0,3.77v12.38c0,2.08,1.69,3.77,3.77,3.77h5.46c.28,0,.5-.22.5-.5s-.22-.5-.5-.5Z" style="fill:#2a2a2a;"/><path d="m18.39,10.15c.05-.12.05-.26,0-.38-.03-.06-.06-.12-.11-.16l-3.53-3.53c-.2-.2-.51-.2-.71,0s-.2.51,0,.71l2.68,2.68H5.02c-.28,0-.5.22-.5.5s.22.5.5.5h11.7l-2.68,2.68c-.2.2-.2.51,0,.71.1.1.23.15.35.15s.26-.05.35-.15l3.53-3.53s.08-.1.11-.16Z" style="fill:#2a2a2a;"/></g></svg>