<svg width="512" height="512" x="0" y="0" viewBox="0 0 512.001 512.001"
  style="enable-background:new 0 0 512 512" >
    <path
      d="M256.001 0c-71.047 0-129.186 57.803-129.186 128.852v289.064c0 51.879 42.374 94.086 94.253 94.086s94.253-42.207 94.253-94.086v-252.49c0-32.709-26.611-59.32-59.32-59.32s-59.32 26.611-59.32 59.32v218.587c0 10.92 8.853 19.773 19.773 19.773s19.773-8.853 19.773-19.773V165.426c0-10.903 8.87-19.773 19.773-19.773s19.773 8.87 19.773 19.773v252.49c0 30.073-24.634 54.539-54.706 54.539s-54.706-24.466-54.706-54.539V128.852c0-49.242 40.397-89.305 89.64-89.305s89.64 40.062 89.64 89.305v270.553c0 10.92 8.853 19.773 19.773 19.773s19.773-8.853 19.773-19.773V128.852C385.187 57.803 327.049 0 256.001 0z"
      fill="#000000" data-original="#000000" class=""></path>
</svg>