<?xml version="1.0" encoding="UTF-8"?> <svg id="uuid-7cec153c-42c5-48a0-9b77-847810c12a6e" xmlns="http://www.w3.org/2000/svg" viewBox="0 0 30.89 46.76"> <g id="uuid-1b2b4bbc-7f7c-4643-bcf1-104f983f02a4"> <path d="m19.67,42.12c0,1.44-.46,2.58-1.39,3.4-.93.83-2,1.23-3.21,1.23s-2.36-.4-3.29-1.22c-.94-.8-1.42-1.94-1.42-3.41,0-1.29.46-2.39,1.36-3.27.92-.87,2.03-1.32,3.34-1.32s2.39.44,3.27,1.32c.87.89,1.32,1.98,1.32,3.27Z" style="fill:#2a2a2a;" /> <path d="m30.89,12.32c.01,1.75-.35,3.29-1.05,4.61-.71,1.32-1.55,2.46-2.54,3.41-.97.96-2.73,2.57-5.27,4.83-.69.64-1.25,1.21-1.68,1.68-.42.49-.74.93-.94,1.33-.21.4-.36.8-.47,1.21-.11.4-.29,1.11-.51,2.12-.39,2.14-1.61,3.21-3.68,3.21-1.07,0-1.97-.35-2.71-1.05-.72-.69-1.1-1.73-1.1-3.11,0-1.73.28-3.23.8-4.5.54-1.28,1.25-2.39,2.14-3.34.89-.96,2.08-2.1,3.58-3.41,1.32-1.15,2.28-2.03,2.86-2.61.58-.58,1.08-1.25,1.48-1.96.4-.72.6-1.51.6-2.36,0-1.64-.61-3.04-1.83-4.16-1.23-1.14-2.82-1.71-4.75-1.71-2.26,0-3.94.58-5.01,1.72-1.07,1.14-1.97,2.83-2.72,5.05-.69,2.33-2.03,3.5-3.98,3.5-1.15,0-2.12-.42-2.91-1.22-.79-.82-1.19-1.69-1.19-2.65,0-1.96.62-3.94,1.89-5.94,1.25-2.01,3.08-3.68,5.49-4.99,2.41-1.32,5.22-1.97,8.44-1.97,2.98,0,5.62.54,7.91,1.65,2.29,1.1,4.05,2.59,5.3,4.5,1.23,1.89,1.86,3.95,1.86,6.17Z" style="fill:#2a2a2a;" /></g></svg>