<?xml version="1.0" encoding="UTF-8"?><svg id="uuid-19eb7ce1-6347-46c2-a8e0-d8b4f989e836" xmlns="http://www.w3.org/2000/svg" viewBox="0 0 51.97 91.24"><g id="uuid-8ee5ccd1-5fc0-4152-bdd5-61a77fcc047f"><path d="m15.95,62.66v-3.81c0-2.98.34-5.58,1.03-7.79.68-2.21,1.83-4.3,3.44-6.25,1.61-1.95,3.79-4,6.53-6.13,2.78-2.21,5-4.13,6.68-5.74,1.67-1.61,2.89-3.23,3.66-4.86.76-1.63,1.15-3.54,1.15-5.71,0-3.38-1.16-5.98-3.47-7.79-2.32-1.81-5.57-2.72-9.76-2.72-3.71,0-7.19.52-10.45,1.57-3.26,1.05-6.49,2.38-9.67,3.99L0,6.71c3.67-1.97,7.65-3.58,11.96-4.83,4.31-1.25,9.04-1.87,14.2-1.87,8.22,0,14.57,1.99,19.06,5.98,4.49,3.99,6.74,9.27,6.74,15.83,0,3.54-.57,6.6-1.69,9.15-1.13,2.56-2.79,4.92-4.99,7.07-2.2,2.16-4.84,4.42-7.95,6.8-2.54,2.01-4.48,3.76-5.83,5.23-1.35,1.47-2.28,2.95-2.78,4.44-.5,1.49-.76,3.28-.76,5.38v2.78h-12.02Zm-2.3,19.46c0-3.3.86-5.63,2.57-6.98,1.71-1.35,3.82-2.02,6.31-2.02s4.49.67,6.22,2.02c1.73,1.35,2.6,3.68,2.6,6.98s-.87,5.55-2.6,6.98c-1.73,1.43-3.81,2.15-6.22,2.15s-4.6-.72-6.31-2.15c-1.71-1.43-2.57-3.76-2.57-6.98Z" style="fill:#2a2a2a;"/></g></svg>