<?xml version="1.0" encoding="UTF-8"?><svg id="uuid-0c2d2e29-0e6c-4be0-b500-0b059d06b062" xmlns="http://www.w3.org/2000/svg" viewBox="0 0 75.89 75.89"><g id="uuid-8a716e33-1db1-4561-8ec2-666bea515df8"><path d="m75.44,41.77l-8.73-8.73c-.6-.6-1.58-.6-2.18,0l-26.66,26.66c-1.94,1.94-3.26,4.4-3.8,7.09l-1.45,7.24c-.1.51.06,1.03.42,1.39.29.29.69.45,1.09.45.1,0,.2,0,.3-.03l7.24-1.45c2.7-.54,5.15-1.85,7.09-3.8l26.66-26.66c.29-.29.45-.68.45-1.09s-.16-.8-.45-1.09Zm-28.85,26.66c-1.51,1.51-3.42,2.53-5.52,2.95l-4.97.99.99-4.97c.42-2.1,1.44-4,2.95-5.52l25.57-25.57,6.54,6.54-25.57,25.57Z" style="fill:#2a2a2a;"/><path d="m21.55,72.81H7.71c-2.55,0-4.63-2.08-4.63-4.63V7.71c0-2.55,2.08-4.63,4.63-4.63h29.31v10.8c0,4.25,3.46,7.71,7.71,7.71h10.8v3.64c0,.85.69,1.54,1.54,1.54s1.54-.69,1.54-1.54v-5.18s0-.03,0-.05c0-.02,0-.04,0-.06,0-.06-.01-.13-.02-.19,0,0,0,0,0,0-.01-.07-.03-.13-.05-.2,0-.01,0-.02-.01-.04-.02-.06-.05-.12-.08-.18,0,0,0,0,0-.01-.03-.06-.07-.12-.11-.17,0-.01-.02-.02-.03-.04-.04-.06-.09-.11-.14-.16L39.65.45s0,0,0,0c-.05-.05-.1-.09-.15-.13-.01,0-.02-.02-.04-.03-.05-.04-.11-.08-.17-.11,0,0,0,0-.01,0-.06-.03-.12-.06-.18-.08-.01,0-.02,0-.04-.01-.06-.02-.13-.04-.2-.05,0,0,0,0,0,0-.06-.01-.13-.02-.19-.02-.02,0-.03,0-.05,0-.02,0-.03,0-.05,0H7.71C3.46,0,0,3.46,0,7.71v60.47c0,4.25,3.46,7.71,7.71,7.71h13.84c.85,0,1.54-.69,1.54-1.54s-.69-1.54-1.54-1.54Zm23.18-54.3c-2.55,0-4.63-2.08-4.63-4.63V5.27l13.24,13.24h-8.62Z" style="fill:#2a2a2a;"/><path d="m46.28,31.16c0-.85-.69-1.54-1.54-1.54H13.88c-.85,0-1.54.69-1.54,1.54s.69,1.54,1.54,1.54h30.85c.85,0,1.54-.69,1.54-1.54Z" style="fill:#2a2a2a;"/><path d="m13.88,41.96c-.85,0-1.54.69-1.54,1.54s.69,1.54,1.54,1.54h24.93c.85,0,1.54-.69,1.54-1.54s-.69-1.54-1.54-1.54H13.88Z" style="fill:#2a2a2a;"/><path d="m27.14,54.3h-13.26c-.85,0-1.54.69-1.54,1.54s.69,1.54,1.54,1.54h13.26c.85,0,1.54-.69,1.54-1.54s-.69-1.54-1.54-1.54Z" style="fill:#2a2a2a;"/></g></svg>