<?xml version="1.0" encoding="UTF-8"?><svg id="uuid-69571de7-784d-4723-927c-76338ce51da0" xmlns="http://www.w3.org/2000/svg" viewBox="0 0 46.3 47.95"><g id="uuid-516946b9-cad8-4986-bc74-1e740cf5f104"><path d="m45.59,43.68l-11.41-11.87c2.93-3.49,4.54-7.88,4.54-12.45C38.72,8.69,30.04,0,19.36,0S0,8.69,0,19.36s8.69,19.36,19.36,19.36c4.01,0,7.83-1.21,11.09-3.5l11.5,11.96c.48.5,1.13.77,1.82.77.66,0,1.28-.25,1.75-.7,1-.97,1.04-2.57.07-3.57ZM19.36,5.05c7.89,0,14.31,6.42,14.31,14.31s-6.42,14.31-14.31,14.31-14.31-6.42-14.31-14.31,6.42-14.31,14.31-14.31Z" style="fill:#2a2a2a;"/></g></svg>