<?xml version="1.0" encoding="UTF-8"?><svg id="uuid-1ab513bb-bb90-4f65-8e84-e3757f19ef51" xmlns="http://www.w3.org/2000/svg" viewBox="0 0 19.99 19.44"><g id="uuid-0f961c90-910d-495c-99f7-423b2a7d25fa"><path d="m.5,3.1h3.37c.23,1.2,1.29,2.1,2.55,2.1s2.32-.91,2.55-2.1h10.51c.28,0,.5-.22.5-.5s-.22-.5-.5-.5h-10.51c-.23-1.2-1.29-2.1-2.55-2.1s-2.32.91-2.55,2.1H.5c-.28,0-.5.22-.5.5s.22.5.5.5ZM6.42,1c.88,0,1.6.72,1.6,1.6s-.72,1.6-1.6,1.6-1.6-.72-1.6-1.6.72-1.6,1.6-1.6Z" style="fill:#2a2a2a;"/><path d="m19.49,9.22h-2.69c-.25-1.18-1.29-2.07-2.55-2.07s-2.3.89-2.55,2.07H.5c-.28,0-.5.22-.5.5s.22.5.5.5h11.19c.22,1.21,1.28,2.14,2.56,2.14s2.34-.92,2.56-2.14h2.68c.28,0,.5-.22.5-.5s-.22-.5-.5-.5Zm-5.24,2.14c-.88,0-1.6-.72-1.6-1.6s.72-1.6,1.6-1.6,1.6.72,1.6,1.6-.72,1.6-1.6,1.6Z" style="fill:#2a2a2a;"/><path d="m19.49,16.34h-11.24c-.23-1.2-1.29-2.1-2.55-2.1s-2.32.91-2.55,2.1H.5c-.28,0-.5.22-.5.5s.22.5.5.5h2.64c.23,1.2,1.29,2.1,2.55,2.1s2.32-.91,2.55-2.1h11.24c.28,0,.5-.22.5-.5s-.22-.5-.5-.5Zm-13.8,2.1c-.88,0-1.6-.72-1.6-1.6s.72-1.6,1.6-1.6,1.6.72,1.6,1.6-.72,1.6-1.6,1.6Z" style="fill:#2a2a2a;"/></g></svg>