<?xml version="1.0" encoding="UTF-8"?><svg id="uuid-555a648d-a9b0-4194-b1fb-a1a79c000154" xmlns="http://www.w3.org/2000/svg" viewBox="0 0 68.89 75.89"><g id="uuid-b82031ef-51bf-46e3-af07-878a37c968aa"><path d="m63.83,0H5.06C2.27,0,0,2.26,0,5.06v70.83l12.7-12.7h51.13c2.8,0,5.06-2.26,5.06-5.06V5.06c0-2.8-2.26-5.06-5.06-5.06Zm-28.7,45.48h-18.96c-.85,0-1.54-.69-1.54-1.55s.69-1.54,1.54-1.54h18.96c.85,0,1.54.69,1.54,1.54s-.69,1.55-1.54,1.55Zm11.67-12.34h-30.63c-.85,0-1.54-.69-1.54-1.55s.69-1.54,1.54-1.54h30.63c.85,0,1.54.69,1.54,1.54s-.69,1.55-1.54,1.55Zm5.92-12.34H16.17c-.85,0-1.54-.69-1.54-1.55s.69-1.54,1.54-1.54h36.55c.85,0,1.54.69,1.54,1.54s-.69,1.55-1.54,1.55Z" style="fill:#2a2a2a;"/></g></svg>