<?xml version="1.0" encoding="UTF-8"?><svg id="uuid-b827261f-393a-4b67-88a5-b2653966b586" xmlns="http://www.w3.org/2000/svg" viewBox="0 0 71.22 78.28"><g id="uuid-da6ce8d5-a96b-4a1c-aa8c-eb4b8f790317"><path d="m53.35,33.89v-14.82c0-.42-.2-.82-.47-1.13L36.27.51c-.31-.33-.75-.51-1.19-.51H8.75C3.88,0,0,3.96,0,8.83v49.8c0,4.86,3.88,8.76,8.75,8.76h20.79c3.93,6.53,11.08,10.9,19.22,10.9,12.37,0,22.47-10.05,22.47-22.43.02-10.82-7.75-19.86-17.87-21.96h0ZM36.71,5.73l11.14,11.73h-7.23c-2.15,0-3.92-1.78-3.92-3.93v-7.8Zm-27.97,58.39c-3.05,0-5.48-2.45-5.48-5.5V8.83c0-3.07,2.43-5.56,5.48-5.56h24.7v10.26c0,3.96,3.21,7.2,7.18,7.2h9.46v12.74c-.49-.02-.88-.07-1.3-.07-5.69,0-10.93,2.19-14.88,5.61H13.18c-.9,0-1.63.73-1.63,1.63s.73,1.63,1.63,1.63h17.69c-1.16,1.63-2.12,3.26-2.87,5.06h-14.82c-.9,0-1.63.73-1.63,1.63s.73,1.63,1.63,1.63h13.75c-.41,1.63-.62,3.44-.62,5.25,0,2.94.57,5.84,1.6,8.29H8.75v-.02Zm40.02,10.92c-10.57,0-19.17-8.6-19.17-19.17s8.58-19.17,19.17-19.17,19.17,8.6,19.17,19.17-8.6,19.17-19.17,19.17h0Z" style="fill:#0092d4;"/><path d="m13.18,34.1h16.53c.9,0,1.63-.73,1.63-1.63s-.73-1.63-1.63-1.63H13.18c-.9,0-1.63.73-1.63,1.63s.73,1.63,1.63,1.63Zm36.74,9.72c-.31-.33-.73-.52-1.19-.52s-.88.2-1.19.52l-9.56,10.26c-.62.65-.57,1.7.08,2.3.65.62,1.71.57,2.33-.08l6.76-7.23v17.82c0,.9.73,1.63,1.63,1.63s1.63-.73,1.63-1.63v-17.82l6.71,7.23c.33.34.75.52,1.19.52.39,0,.78-.15,1.11-.44.65-.62.7-1.65.08-2.3l-9.58-10.26Z" style="fill:#0092d4;"/></g></svg>